<svg width="60" height="60" viewBox="0 0 60 60" fill="none" xmlns="http://www.w3.org/2000/svg">
<path d="M29.7521 39C26.9175 39 23.8561 41.5225 22.4955 42.7858C21.1349 41.5225 18.0735 39 15.239 39C11.8311 39 9.79651 40.8692 9.79651 44C9.79651 47.1308 11.8311 49 15.239 49C18.0735 49 21.1349 46.4775 22.4955 45.2142C23.8561 46.4775 26.9175 49 29.7521 49C33.16 49 35.1945 47.1308 35.1945 44C35.1945 40.8692 33.16 39 29.7521 39ZM15.2389 47.3334C12.8315 47.3334 11.6106 46.2117 11.6106 44C11.6106 41.7883 12.8315 40.6667 15.2389 40.6667C17.2345 40.6667 19.8831 42.7325 21.251 44C19.8859 45.2692 17.2426 47.3334 15.2389 47.3334ZM29.7521 47.3334C27.7565 47.3334 25.1079 45.2675 23.74 44C25.1006 42.7317 27.7484 40.6667 29.7521 40.6667C32.1595 40.6667 33.3804 41.7883 33.3804 44C33.3804 46.2117 32.1595 47.3334 29.7521 47.3334Z" fill="#E6330F"/>
<path d="M54.534 10.3338L34.596 0.415068C32.7046 -0.526128 30.104 0.197869 29.0796 1.93546L17.4162 21.8454H3.23106C1.41851 21.8454 0 23.1486 0 24.8138V30.0266V57.0316C0 58.6968 1.41851 60 3.23106 60H48.5447C50.3573 60 51.7758 58.6968 51.7758 57.0316V49.5021H53.1155C53.8248 49.5021 54.3764 48.9953 54.3764 48.3437V39.7281C54.3764 39.0765 53.8248 38.5697 53.1155 38.5697H51.7758V30.0989C51.7758 28.7234 50.6725 27.4926 49.254 27.203L56.1889 15.4018C57.2134 13.5918 56.5042 11.3474 54.534 10.3338ZM40.3489 5.91745L27.8975 27.1306H24.3512L37.6694 4.61425L40.3489 5.91745ZM31.3649 3.02146C31.759 2.36986 32.7046 2.08026 33.4139 2.44226L35.3841 3.45586L21.5141 27.1306H17.1798L31.3649 3.02146ZM2.443 24.7414C2.443 24.5242 2.75822 24.1622 3.15225 24.1622H15.9977L14.264 27.0582H3.15225C2.91584 27.0582 2.67942 27.0582 2.443 27.1306V24.7414ZM49.1752 57.0316C49.1752 57.3936 48.86 57.6832 48.4659 57.6832H3.15225C2.75822 57.6832 2.443 57.3936 2.443 57.0316V30.0989C2.443 29.7369 2.75822 29.4473 3.15225 29.4473H15.052H20.0956H29.316H47.0474H48.3871C48.7811 29.4473 49.0964 29.7369 49.0964 30.0989V38.5697H44.2892C42.1614 38.5697 40.5065 40.1625 40.5065 42.0449V46.0269C40.5065 47.9817 42.2402 49.5021 44.2892 49.5021H49.1752V57.0316ZM51.697 40.8865H51.7758V47.1853H51.697H44.2892C43.5799 47.1853 43.0283 46.6785 43.0283 46.0269V42.0449C43.0283 41.3933 43.5799 40.8865 44.2892 40.8865H51.697ZM53.9036 14.2434L46.3382 27.1306H30.7345L42.5554 7.07584L53.2731 12.4334C54.0612 12.723 54.2976 13.5918 53.9036 14.2434Z" fill="#034899"/>
<path fill-rule="evenodd" clip-rule="evenodd" d="M33.431 17.6465L29.7071 15.7863L28.3008 18.1624L32.8708 20.4452L33.431 17.6465Z" fill="#F44336"/>
<path fill-rule="evenodd" clip-rule="evenodd" d="M31.1543 17.5777C31.1543 17.5777 31.0929 17.6815 30.9745 17.8815C30.8561 18.0816 30.9003 18.4845 31.4177 18.743C31.8408 18.9543 32.133 18.8027 32.2675 18.5754C32.3435 18.447 32.2267 18.1134 31.9384 17.9694L31.1543 17.5777ZM33.0331 17.6298L32.6282 18.314L32.4315 18.2157C32.4787 18.3897 32.4983 18.7163 32.336 18.9905C32.1752 19.2622 31.661 19.6709 31.0413 19.3614C30.4242 19.0531 30.5059 18.2427 30.731 17.8623C30.9561 17.4819 30.9576 17.4795 30.9576 17.4795C30.7312 17.3664 30.6773 17.3395 30.5183 17.2601C30.3621 17.182 30.1605 17.2157 30.0509 17.401C29.9398 17.5887 29.94 17.8832 30.285 18.0555L29.9619 18.6014C29.7328 18.487 29.373 18.1216 29.8598 17.2991C30.3481 16.4742 30.8034 16.5896 30.984 16.6798C31.1672 16.7713 32.6627 17.5184 32.7489 17.5614C32.8971 17.6355 33.0331 17.6298 33.0331 17.6298Z" fill="white"/>
<path fill-rule="evenodd" clip-rule="evenodd" d="M34.7437 12.8708L34.5551 13.1894L34.5227 13.1733L34.496 13.1535L34.472 13.1351L34.4495 13.1142L34.4269 13.0934L34.4126 13.0703L34.3957 13.0458L34.3856 13.0215L34.377 12.9949L34.3669 12.9706L34.3651 12.9441L34.3607 12.9163L34.3616 12.8911L34.3625 12.866L34.3663 12.8359L34.3714 12.8097L34.3791 12.7847L34.3884 12.7573L34.3988 12.7338L34.4108 12.7077L34.4122 12.7052L34.4266 12.6868L34.4439 12.6635L34.4598 12.6426L34.4798 12.6206L34.501 12.6024L34.5223 12.5842L34.5448 12.5698L34.5672 12.5554L34.5965 12.5413L34.6202 12.5308L34.6493 12.5229L34.677 12.5174L34.7088 12.511L34.7376 12.5094L34.7677 12.5116L34.7978 12.5139L34.8319 12.5212L34.8632 12.5273L34.897 12.541L34.9308 12.5546L34.7437 12.8708ZM31.2504 15.222L30.8426 15.9111L33.3593 17.1683L33.7671 16.4792L31.2504 15.222ZM38.3258 6.12216L38.2987 6.11496L38.2688 6.10646L38.2429 6.10309L38.2157 6.09593L38.1897 6.09256L38.1638 6.08923L38.1364 6.08834L38.1132 6.0863L38.0884 6.08676L38.0637 6.0872L38.0376 6.09013L38.0141 6.09441L37.9933 6.10004L37.9684 6.10679L37.9449 6.11107L37.9226 6.11918L37.9004 6.12723L37.8782 6.13533L37.8571 6.14726L37.8349 6.15531L37.8139 6.16724L37.7929 6.17912L37.7692 6.18971L37.7509 6.20293L37.7284 6.21735L37.7086 6.23305L37.6876 6.24493L37.6678 6.26069L37.648 6.27639L37.6283 6.2921L37.6085 6.30786L37.5872 6.32605L37.5687 6.34558L37.5516 6.36263L37.5304 6.38082L37.5118 6.40035L37.4933 6.41988L37.4747 6.43942L37.4562 6.45895L37.4389 6.48231L37.4189 6.50432L37.403 6.5252L37.383 6.54722L37.3672 6.56809L37.3472 6.59011L37.3298 6.61347L37.3111 6.63931L37.2964 6.66402L37.2791 6.68732L37.2645 6.71203L37.2487 6.73291L37.2341 6.75762L37.218 6.78481L37.2019 6.81199L37.1858 6.83913L37.1697 6.86632L37.1536 6.8935L37.1376 6.92064L37.1256 6.94669L37.1122 6.97522L37.0989 7.0037L37.0828 7.03089L37.0709 7.05694L37.0616 7.08434L37.0512 7.10791L37.0419 7.13531L37.0315 7.15888L37.0222 7.18628L37.0118 7.20985L37.0026 7.23725L36.9948 7.26217L36.987 7.28708L36.9834 7.31086L36.9757 7.33578L36.9693 7.35827L36.9643 7.38453L36.9607 7.40831L36.9556 7.43458L36.952 7.45836L36.9484 7.48219L36.9462 7.50349L36.9453 7.52862L36.9417 7.55246L36.9422 7.5751L36.9413 7.60028L36.9433 7.62045L36.9439 7.64315L36.9444 7.66579L36.945 7.6885L36.9482 7.71249L36.9529 7.73405L36.9549 7.75427L36.9582 7.77826L36.967 7.79869L36.9717 7.82026L36.9764 7.84182L36.9826 7.8609L36.99 7.88376L36.9974 7.90667L37.0035 7.92576L37.0151 7.94753L37.0239 7.96796L37.0343 7.98591L37.0458 8.00768L37.0588 8.02698L37.0677 8.04741L37.0834 8.06805L37.0964 8.08734L37.1109 8.10421L37.1308 8.12371L37.1438 8.14301L37.1651 8.16008L37.1823 8.17824L37.2022 8.19774L37.2249 8.21234L37.2463 8.22942L37.2636 8.24132L37.2757 8.25048L37.3173 8.2745L37.769 7.5113L37.7313 7.49245L37.722 7.48458L37.7087 7.4716L37.6916 7.45339L37.6759 7.43275L37.6655 7.4148L37.6582 7.39189L37.652 7.37281L37.6487 7.34881L37.6524 7.32498L37.6545 7.30368L37.6596 7.27741L37.6646 7.25115L37.6724 7.22624L37.6843 7.20018L37.6989 7.17548L37.7123 7.14694L37.7297 7.12358L37.7457 7.09645L37.7643 7.07692L37.7828 7.05738L37.8014 7.0378L37.8212 7.02209L37.8409 7.00639L37.8619 6.99446L37.8856 6.98392L37.9064 6.9783L37.9326 6.97537L37.9585 6.97875L37.9857 6.9859L38.01 6.99801L38.0369 7.01147L38.0541 7.02963L38.0671 7.04898L38.0718 7.07049L38.0738 7.09071L38.0729 7.11584L38.0693 7.13967L38.0657 7.16345L38.0579 7.18837L38.0501 7.21329L38.0424 7.2382L38.0331 7.2656L38.0227 7.28917L37.9818 7.39359L37.941 7.49801L37.8975 7.60103L37.8581 7.70297L37.8461 7.72902L37.8384 7.75394L37.8291 7.78134L37.8187 7.80491L37.8109 7.82983L37.8017 7.85722L37.7939 7.88214L37.7862 7.90706L37.7784 7.93198L37.7748 7.95581L37.767 7.98073L37.7592 8.00565L37.7556 8.02943L37.7506 8.05569L37.7443 8.07813L37.7406 8.10196L37.7356 8.12822L37.732 8.15201L37.7284 8.17579L37.7289 8.19849L37.7253 8.22227L37.7217 8.24605L37.7222 8.26875L37.7228 8.29139L37.7233 8.3141L37.7265 8.33814L37.7271 8.36079L37.7291 8.38101L37.7338 8.40252L37.7412 8.42543L37.7459 8.44699L37.7548 8.46742L37.7636 8.48785L37.7725 8.50828L37.7813 8.52871L37.7943 8.548L37.8101 8.56864L37.8245 8.58546L37.8403 8.6061L37.8589 8.62183L37.8788 8.64133L37.9001 8.65841L37.9214 8.67548L37.9454 8.69385L37.9682 8.70845L37.9937 8.72439L38.0179 8.73651L38.0437 8.74614L38.0694 8.75577L38.0938 8.76163L38.1225 8.7663L38.1457 8.76833L38.1731 8.76923L38.1978 8.76878L38.2213 8.7645L38.2448 8.76022L38.267 8.75212L38.2893 8.74401L38.3115 8.73597L38.3325 8.72403L38.3523 8.70833L38.3709 8.68879L38.3867 8.66791L38.404 8.64456L38.8455 7.89862L38.7966 7.92221L38.7842 7.92557L38.7648 7.92871L38.7455 7.93185L38.7194 7.93478L38.6974 7.93658L38.6699 7.93573L38.6413 7.93101L38.6141 7.92386L38.5899 7.91175L38.5685 7.89467L38.5472 7.87759L38.5327 7.86078L38.5197 7.84149L38.5123 7.81858L38.5062 7.79949L38.4987 7.77664L38.4982 7.75394L38.4977 7.73124L38.4971 7.70859L38.5007 7.68481L38.5044 7.66097L38.5244 7.56223L38.543 7.46592L38.5466 7.44208L38.5544 7.41716L38.558 7.39338L38.5631 7.36712L38.5667 7.34334L38.5701 7.32581L38.5732 7.31459L38.5778 7.30089L38.5775 7.27194L39.0706 7.51826L39.5413 6.72291L38.4123 6.15893L38.3854 6.14547L38.3543 6.13315L38.3258 6.12216ZM32.1148 13.7497L31.6412 14.55L32.4415 14.9497L32.25 15.2733L32.7916 15.5439L32.9831 15.2203L33.7133 15.5851L33.7375 15.5972L33.7645 15.6106L33.7887 15.6227L33.8145 15.6324L33.8375 15.6407L33.8605 15.649L33.885 15.6548L33.9095 15.6606L33.9312 15.6651L33.953 15.6696L33.9763 15.6716L33.9995 15.6736L34.0215 15.6718L34.0421 15.6725L34.0614 15.6693L34.0834 15.6675L34.1015 15.6606L34.1208 15.6574L34.1416 15.6518L34.1624 15.6462L34.1805 15.6392L34.1973 15.6284L34.2169 15.619L34.234 15.6019L34.2496 15.5873L34.2679 15.5741L34.2835 15.5595L34.2994 15.5386L34.3138 15.5202L34.3296 15.4993L34.344 15.4809L34.3572 15.4587L34.3745 15.4353L34.6288 15.0055L33.4567 14.42L33.7286 13.9606L33.187 13.6901L32.9151 14.1495L32.1148 13.7497ZM35.4949 9.76108L35.4778 9.77813L35.4622 9.79276L35.4466 9.80733L35.4322 9.82572L35.4192 9.8417L35.4049 9.86009L35.3905 9.87849L35.3788 9.89829L35.3685 9.91555L35.3568 9.93535L35.3493 9.95396L35.3403 9.97505L35.3328 9.99371L35.3265 10.0161L35.3204 10.0323L35.3155 10.0523L35.3107 10.0723L35.3073 10.0898L35.3039 10.1073L35.2991 10.1273L35.2984 10.1462L35.2977 10.165L35.297 10.1839L35.2963 10.2027L35.2983 10.2229L35.2977 10.2418L35.3011 10.2595L35.3031 10.2797L35.3066 10.2975L35.3086 10.3177L35.3162 10.3343L35.3224 10.3534L35.3259 10.3711L35.332 10.3902L35.3396 10.4068L35.3458 10.4259L35.3561 10.4438L35.3638 10.4604L35.159 10.3581L34.7234 11.0941L36.4452 11.9542L36.9247 11.1441L36.0705 10.7174L36.0462 10.7053L36.0234 10.6908L36.0033 10.6775L35.9874 10.6631L35.9688 10.6475L35.9543 10.6306L35.9398 10.6138L35.9281 10.5983L35.9163 10.5828L35.9059 10.5648L35.8998 10.5458L35.8921 10.5292L35.8887 10.5114L35.8825 10.4923L35.8791 10.4746L35.8798 10.4557L35.8777 10.4356L35.8784 10.4167L35.8806 10.3953L35.8827 10.374L35.8876 10.354L35.8939 10.3316L35.8987 10.3116L35.9092 10.288L35.9182 10.2669L35.9286 10.2433L36.0704 10.0038L35.5288 9.73323L35.5105 9.74646L35.4949 9.76108ZM36.4509 8.14573L36.4353 8.1603L36.4197 8.17492L36.4026 8.19197L36.3896 8.20794L36.3753 8.22634L36.3623 8.24231L36.3479 8.26071L36.3363 8.28045L36.326 8.29777L36.3143 8.31751L36.3053 8.3386L36.2978 8.35727L36.2888 8.37835L36.2839 8.39836L36.2764 8.41697L36.2716 8.43698L36.2682 8.45445L36.2633 8.47446L36.2599 8.49198L36.2566 8.50946L36.2544 8.53081L36.2537 8.54968L36.2531 8.5685L36.2524 8.58738L36.2558 8.60511L36.2551 8.62399L36.2572 8.64415L36.2592 8.66437L36.2626 8.6821L36.2661 8.69984L36.2723 8.71893L36.2784 8.73801L36.2819 8.75575L36.2881 8.77483L36.2957 8.79143L36.3033 8.80804L36.3122 8.82846L36.3198 8.84507L36.1165 8.74029L35.6808 9.47635L37.4027 10.3365L37.8807 9.52875L37.0265 9.10206L37.0023 9.08995L36.9795 9.07541L36.9609 9.05968L36.9449 9.04535L36.9263 9.02962L36.9103 9.01523L36.8959 8.99842L36.8841 8.98295L36.8737 8.965L36.8635 8.947L36.8558 8.9304L36.8482 8.9138L36.8447 8.89606L36.8386 8.87698L36.8366 8.85676L36.8372 8.83794L36.8338 8.8202L36.8359 8.79885L36.8366 8.78003L36.8388 8.75868L36.8436 8.73872L36.8499 8.71623L36.8562 8.6938L36.8652 8.67271L36.8756 8.64914L36.8847 8.62799L37.0279 8.38595L36.4863 8.1154L36.4665 8.1311L36.4509 8.14573ZM35.5644 11.8439L35.5401 11.8318L35.5171 11.8235L35.4956 11.8127L35.4684 11.8055L35.4454 11.7973L35.4196 11.7876L35.3925 11.7804L35.368 11.7746L35.3396 11.7636L35.3124 11.7564L35.2879 11.7506L35.2608 11.7434L35.2321 11.7387L35.2035 11.734L35.1776 11.7307L35.1489 11.726L35.1203 11.7213L35.0943 11.7179L35.0643 11.7156L35.041 11.7137L35.0136 11.7128L34.9889 11.7132L34.9615 11.7123L34.9368 11.7128L34.9106 11.7157L34.8844 11.7186L34.8597 11.7191L34.8362 11.7234L34.8086 11.7288L34.7851 11.733L34.759 11.736L34.734 11.7427L34.7091 11.7494L34.6841 11.7562L34.6592 11.763L34.6369 11.7711L34.612 11.7778L34.5883 11.7884L34.5646 11.7989L34.5397 11.8056L34.5159 11.8162L34.495 11.8281L34.4698 11.8411L34.4502 11.8506L34.4278 11.8649L34.4041 11.8755L34.3816 11.8899L34.3606 11.9018L34.3408 11.9175L34.3183 11.9319L34.3 11.9451L34.2802 11.9609L34.2605 11.9766L34.2407 11.9923L34.2209 12.008L34.2038 12.0251L34.1853 12.0446L34.1682 12.0617L34.1511 12.0788L34.134 12.0958L34.1155 12.1153L34.1011 12.1338L34.0825 12.1533L34.0667 12.1742L34.0481 12.1937L34.0296 12.2133L34.0137 12.2342L33.9979 12.255L33.982 12.2759L33.9662 12.2968L33.9504 12.3177L33.9345 12.3386L33.9199 12.3633L33.9055 12.3817L33.8908 12.4064L33.8777 12.4286L33.8733 12.436L33.8645 12.4509L33.8514 12.4731L33.8382 12.4953L33.8278 12.5189L33.8146 12.5411L33.8042 12.5647L33.7937 12.5883L33.7818 12.6143L33.7713 12.6379L33.7609 12.6614L33.7518 12.6826L33.7441 12.7075L33.7348 12.7349L33.7285 12.7573L33.7208 12.7823L33.713 12.8072L33.7052 12.8321L33.7002 12.8584L33.6924 12.8833L33.6873 12.9095L33.6837 12.9334L33.6786 12.9596L33.675 12.9834L33.67 13.0097L33.6691 13.0348L33.6667 13.0625L33.6657 13.0876L33.6607 13.1139L33.6625 13.1403L33.6616 13.1655L33.6606 13.1906L33.6597 13.2158L33.6615 13.2422L33.6633 13.2688L33.6623 13.2939L33.6656 13.3179L33.6674 13.3444L33.6733 13.3698L33.6765 13.3938L33.6839 13.4167L33.6886 13.4382L33.696 13.4611L33.7034 13.484L33.7123 13.5045L33.7224 13.5287L33.7313 13.5491L33.7413 13.5734L33.7517 13.5913L33.7617 13.6156L33.7748 13.6349L33.7863 13.6566L33.7993 13.6759L33.815 13.6966L33.8281 13.7159L33.8437 13.7366L33.8568 13.7559L33.8739 13.774L33.887 13.7933L33.9041 13.8115L33.9213 13.8297L33.9358 13.8465L33.9544 13.8622L33.9716 13.8804L33.9902 13.8961L34.0089 13.9118L34.0275 13.9275L34.0461 13.9432L34.0689 13.9578L34.089 13.971L34.1103 13.9881L34.1304 14.0013L34.1532 14.0159L34.1748 14.0267L34.1976 14.0413L34.2176 14.0545L34.2419 14.0666L34.2635 14.0774L34.2877 14.0895L34.312 14.1016L34.335 14.1099L34.3607 14.1195L34.3823 14.1303L34.4094 14.1375L34.4324 14.1458L34.4582 14.1554L34.4853 14.1626L34.5083 14.1709L34.5343 14.1743L34.5588 14.1801L34.586 14.1873L34.6119 14.1906L34.6364 14.1964L34.6623 14.1998L34.6882 14.2032L34.7142 14.2065L34.7416 14.2074L34.7675 14.2108L34.7949 14.2117L34.8197 14.2112L34.8471 14.2121L34.8718 14.2116L34.8992 14.2125L34.9253 14.2096L34.9527 14.2105L34.9777 14.2037L35.0024 14.2033L35.03 14.1979L35.0562 14.195L35.0824 14.192L35.11 14.1867L35.4506 13.6111L35.0087 13.3904L35.1856 13.0915L35.8288 12.0048L35.8075 11.9877L35.7888 11.972L35.7687 11.9588L35.7459 11.9442L35.7231 11.9296L35.7031 11.9163L35.6802 11.9018L35.6587 11.891L35.6359 11.8764L35.6117 11.8643L35.5901 11.8536L35.5644 11.8439Z" fill="#1B1717"/>
<path fill-rule="evenodd" clip-rule="evenodd" d="M40.6563 7.45635L40.5432 7.39982L40.6046 7.29608L40.7177 7.35261L40.6563 7.45635ZM40.5159 7.3574L40.198 7.23383L40.0606 7.16519L40.1278 7.05158L40.2653 7.12023L40.551 7.29812L40.5159 7.3574ZM40.32 7.57636C40.3154 7.59005 40.3076 7.61497 40.2996 7.6462C40.2875 7.6785 40.2853 7.69986 40.2848 7.71242C40.2883 7.73016 40.2974 7.74428 40.3136 7.75236C40.3297 7.76043 40.3461 7.76225 40.3627 7.75776C40.3808 7.7508 40.3962 7.74248 40.4065 7.72517C40.4182 7.70542 40.4203 7.68407 40.4171 7.66008C40.4136 7.64234 40.4072 7.62956 40.394 7.61653C40.3874 7.61001 40.3685 7.60058 40.3415 7.58712L40.32 7.57636ZM40.1465 7.6689L40.0721 7.75334C40.0348 7.72194 40.0169 7.68739 40.0099 7.65191C40.0045 7.61396 40.0183 7.57286 40.049 7.52102C40.0768 7.47409 40.1012 7.44468 40.1293 7.4267C40.1532 7.40986 40.1781 7.40311 40.2028 7.40266C40.2249 7.40086 40.2628 7.4134 40.3113 7.43763L40.4419 7.50606C40.4796 7.5249 40.508 7.53588 40.5284 7.54282C40.5487 7.54982 40.5719 7.5518 40.5993 7.55269L40.5379 7.65643C40.5284 7.65487 40.5147 7.6544 40.4971 7.6488C40.4902 7.64859 40.4848 7.6459 40.4806 7.64703C40.492 7.67506 40.4937 7.70159 40.4916 7.72289C40.4892 7.7505 40.4829 7.77299 40.4683 7.79764C40.4449 7.83718 40.4124 7.86255 40.375 7.87266C40.3376 7.88277 40.3007 7.88032 40.263 7.86147C40.2414 7.85071 40.2201 7.83368 40.207 7.81439C40.1967 7.79639 40.1893 7.77353 40.1903 7.74835C40.1912 7.72322 40.1992 7.69199 40.2157 7.6523C40.2327 7.59998 40.2424 7.56002 40.2445 7.53867L40.2338 7.53328C40.2122 7.52252 40.1931 7.5194 40.1765 7.52389C40.1626 7.52972 40.1469 7.54435 40.1309 7.57148C40.1191 7.59128 40.1158 7.60875 40.118 7.62266C40.1202 7.63662 40.1293 7.65075 40.1465 7.6689ZM39.7194 8.09562L39.9299 7.73992L40.0215 7.78568L39.947 7.91164L40.2865 8.08123L40.2251 8.18502L39.8856 8.01543L39.811 8.14139L39.7194 8.09562ZM39.4738 8.51056L39.5352 8.40683L39.6942 8.48624L39.7834 8.33558L39.6244 8.25616L39.6858 8.15243L40.1169 8.36779L40.0555 8.47152L39.875 8.38134L39.7858 8.532L39.9663 8.62219L39.905 8.72592L39.4738 8.51056ZM39.4672 8.99369C39.5103 9.01523 39.5485 9.02145 39.5817 9.01248C39.6162 9.00733 39.6401 8.99049 39.6562 8.9633C39.6723 8.93611 39.6747 8.9085 39.6621 8.87665C39.6508 8.84856 39.6243 8.82254 39.5812 8.801C39.5381 8.77947 39.4999 8.77319 39.4681 8.77973C39.4349 8.78871 39.4083 8.8042 39.3922 8.83139C39.3761 8.85858 39.3764 8.88753 39.3877 8.91556C39.3976 8.94607 39.4268 8.9735 39.4672 8.99369ZM39.399 9.09716C39.3612 9.07832 39.332 9.05094 39.3031 9.01732C39.2798 8.98002 39.266 8.94434 39.2688 8.90417C39.2648 8.86378 39.2786 8.82269 39.3006 8.78563C39.3356 8.72634 39.3864 8.6877 39.4515 8.67217C39.5138 8.65536 39.5794 8.66248 39.6441 8.69479C39.7088 8.72709 39.7509 8.77381 39.7721 8.83235C39.7919 8.89343 39.7856 8.95113 39.7505 9.01041C39.7301 9.04499 39.6988 9.07418 39.6637 9.0982C39.6243 9.12336 39.5843 9.13212 39.5375 9.13442C39.4964 9.13305 39.4475 9.12139 39.399 9.09716ZM38.8803 9.51338L38.9563 9.38494L39.3124 9.438L39.0718 9.18977L39.1478 9.06138L39.579 9.27674L39.5263 9.36564L39.2434 9.22431L39.4708 9.4595L39.4182 9.5484L39.0812 9.49845L39.3641 9.63978L39.3114 9.72874L38.8803 9.51338ZM38.9542 9.78384C38.9177 9.76882 38.889 9.7641 38.8641 9.77086C38.8391 9.77762 38.8181 9.78949 38.8065 9.80924C38.7918 9.83394 38.7924 9.85664 38.7998 9.87956C38.8099 9.90376 38.8297 9.92332 38.862 9.93947L38.9542 9.78384ZM39.063 9.84776L39.1432 9.75345C39.1763 9.786 39.1955 9.82437 39.2037 9.86367C39.205 9.90271 39.198 9.94402 39.1717 9.98852C39.1307 10.0577 39.0773 10.0949 39.007 10.1015C38.9533 10.1098 38.8947 10.0966 38.8382 10.0683C38.7654 10.032 38.719 9.98643 38.6991 9.93166C38.6777 9.87932 38.6851 9.82545 38.7158 9.77361C38.7494 9.71681 38.7988 9.68065 38.8623 9.6676C38.9218 9.65564 38.9967 9.67068 39.0814 9.71624L38.928 9.97555C38.963 9.99304 38.9931 9.99529 39.0234 9.99127C39.0498 9.98203 39.0723 9.96767 39.0854 9.94545C39.0957 9.92813 39.0976 9.91309 39.0941 9.89535C39.0934 9.87896 39.0816 9.86349 39.063 9.84776ZM38.63 10.3964C38.6758 10.4193 38.7167 10.4269 38.7512 10.4217C38.7857 10.4165 38.8096 10.3997 38.8242 10.375C38.8388 10.3503 38.8398 10.3251 38.827 10.2996C38.8157 10.2715 38.785 10.2466 38.7392 10.2237C38.6934 10.2008 38.6525 10.1932 38.6222 10.1973C38.5904 10.2038 38.5679 10.2181 38.5533 10.2428C38.5387 10.2675 38.5363 10.2952 38.5491 10.3208C38.5604 10.3488 38.5869 10.3749 38.63 10.3964ZM38.3599 10.3927L38.4169 10.2963L38.4816 10.3286C38.4674 10.3055 38.4614 10.2802 38.4584 10.2499C38.4581 10.2209 38.4659 10.1959 38.4819 10.1688C38.5082 10.1244 38.5505 10.0942 38.6099 10.0823C38.6666 10.0691 38.7293 10.0812 38.7994 10.1162C38.8721 10.1525 38.9199 10.1956 38.9387 10.2465C38.9601 10.2988 38.9582 10.3491 38.9319 10.3936C38.9188 10.4158 38.9017 10.4329 38.8792 10.4472C38.8609 10.4605 38.8345 10.4697 38.7985 10.4774L39.0141 10.5851L38.9527 10.6888L38.3599 10.3927ZM37.9608 11.067L38.0193 10.9681L38.2888 11.1027L38.1143 10.8076L38.1743 10.7063L38.6054 10.9217L38.5469 11.0205L38.2721 10.8832L38.4505 11.1835L38.392 11.2823L37.9608 11.067ZM37.5618 11.7413L37.6202 11.6424L37.8897 11.777L37.7153 11.4819L37.7752 11.3806L38.2063 11.596L38.1479 11.6948L37.873 11.5575L38.0514 11.8578L37.9929 11.9566L37.5618 11.7413ZM37.3366 12.1216L37.398 12.0179L37.5732 12.1054C37.5834 12.0881 37.5853 12.073 37.5789 12.0602C37.5725 12.0475 37.5581 12.0306 37.5316 12.0046C37.4985 11.972 37.4803 11.9437 37.4771 11.9197C37.4751 11.8995 37.4801 11.8733 37.4948 11.8486C37.4991 11.8412 37.5106 11.8277 37.5223 11.8079L37.5977 11.8456C37.5816 11.8728 37.5727 11.8939 37.5751 11.9015C37.5761 11.9116 37.5891 11.9309 37.6129 11.9556C37.6448 11.9843 37.6588 12.0138 37.655 12.0438C37.6862 12.0147 37.732 12.0023 37.7963 12.0056C37.8017 12.0083 37.8032 12.0058 37.81 12.006L37.9622 12.0085L37.8964 12.1196L37.7391 12.1082C37.709 12.106 37.687 12.1078 37.6745 12.1112C37.6647 12.1159 37.652 12.1255 37.6432 12.1404L37.8292 12.2332L37.7678 12.337L37.3366 12.1216ZM37.037 12.2503L37.0662 12.201C37.1025 12.2223 37.1249 12.2494 37.132 12.2786C37.1404 12.3116 37.1366 12.3417 37.1176 12.3738C37.0971 12.4084 37.0703 12.4301 37.037 12.4392C37.0064 12.4495 36.9695 12.447 36.9303 12.4307L36.9595 12.3813C36.9799 12.3882 37.0004 12.3889 37.0143 12.3831C37.031 12.3786 37.0451 12.3664 37.0583 12.3442C37.0685 12.3269 37.0734 12.3069 37.0684 12.2917C37.0662 12.2777 37.0544 12.2622 37.037 12.2503ZM37.0633 12.5835L37.1217 12.4847L37.3912 12.6193L37.2153 12.3266L37.2767 12.2229L37.7078 12.4382L37.6479 12.5395L37.3731 12.4022L37.5529 12.7001L37.4944 12.7989L37.0633 12.5835ZM37.0552 13.0691C37.0983 13.0906 37.1365 13.0969 37.1683 13.0904C37.2042 13.0827 37.2282 13.0658 37.2442 13.0387C37.2603 13.0115 37.2627 12.9839 37.2487 12.9545C37.2388 12.924 37.2109 12.9004 37.1677 12.8789C37.1246 12.8574 37.0879 12.8486 37.0547 12.8576C37.0229 12.8641 36.9963 12.8796 36.9802 12.9068C36.9641 12.9339 36.9644 12.9629 36.9743 12.9935C36.9856 13.0215 37.0148 13.0489 37.0552 13.0691ZM36.987 13.1726C36.9492 13.1537 36.9186 13.1288 36.8911 13.0927C36.8663 13.0579 36.854 13.0198 36.8553 12.9821C36.8528 12.9391 36.8652 12.9005 36.8885 12.861C36.9236 12.8018 36.973 12.7656 37.0395 12.7476C37.1018 12.7308 37.1674 12.7379 37.2321 12.7702C37.2967 12.8025 37.3389 12.8492 37.3601 12.9078C37.3798 12.9688 37.3722 13.029 37.3385 13.0858C37.3166 13.1229 37.2868 13.1496 37.2502 13.1761C37.2123 13.1988 37.1708 13.21 37.1255 13.2098C37.0829 13.2109 37.0355 13.1968 36.987 13.1726ZM36.7867 13.511C36.8325 13.5338 36.8719 13.544 36.9078 13.5363C36.9423 13.5311 36.9648 13.5168 36.9794 13.4921C36.994 13.4673 36.9949 13.4422 36.9822 13.4166C36.9709 13.3885 36.9402 13.3636 36.8944 13.3408C36.8486 13.3179 36.8092 13.3078 36.7774 13.3143C36.747 13.3184 36.7231 13.3352 36.7085 13.3599C36.6939 13.3846 36.693 13.4098 36.7043 13.4378C36.7156 13.4659 36.7436 13.4894 36.7867 13.511ZM36.5166 13.5072L36.5736 13.4109L36.6382 13.4432C36.624 13.4201 36.6181 13.3947 36.6136 13.3669C36.6133 13.338 36.6225 13.3106 36.6371 13.2858C36.6649 13.2389 36.7057 13.2113 36.7651 13.1994C36.8218 13.1861 36.8845 13.1982 36.9546 13.2332C37.0273 13.2695 37.0751 13.3126 37.0938 13.3636C37.1153 13.4159 37.1134 13.4662 37.0871 13.5106C37.074 13.5329 37.0569 13.55 37.0359 13.5618C37.0175 13.5751 36.9897 13.5868 36.9537 13.5944L37.1693 13.7021L37.1094 13.8034L36.5166 13.5072ZM36.271 13.9222L36.4815 13.5665L36.5731 13.6123L36.4985 13.7383L36.838 13.9079L36.7766 14.0116L36.4371 13.842L36.3626 13.968L36.271 13.9222ZM36.3813 14.0189L36.3402 14.1296C36.3158 14.1238 36.2952 14.1231 36.2744 14.1287C36.2563 14.1357 36.2422 14.1478 36.2305 14.1676C36.2159 14.1923 36.2135 14.2199 36.2236 14.2442C36.2337 14.2684 36.2616 14.292 36.3074 14.3148C36.3586 14.3404 36.4007 14.3518 36.4284 14.3465C36.4587 14.3424 36.4826 14.3255 36.4987 14.2984C36.5104 14.2786 36.5138 14.2611 36.5076 14.242C36.5042 14.2243 36.4884 14.2036 36.4617 14.1839L36.5405 14.092C36.5859 14.1275 36.6119 14.1661 36.6198 14.2117C36.6307 14.2523 36.6193 14.301 36.5901 14.3504C36.555 14.4097 36.5071 14.4434 36.4463 14.4578C36.3881 14.4735 36.3213 14.4625 36.2512 14.4275C36.1811 14.3925 36.1375 14.3483 36.1175 14.2936C36.0976 14.2388 36.1065 14.1825 36.1416 14.1232C36.1693 14.0762 36.202 14.0446 36.2424 14.0295C36.2815 14.0106 36.3282 14.0084 36.3813 14.0189ZM35.8745 14.7514L35.8306 14.8255C35.8145 14.8527 35.8082 14.8751 35.8105 14.889C35.8113 14.9054 35.8218 14.9171 35.8433 14.9279C35.8622 14.9373 35.8813 14.9404 35.8982 14.9296C35.9136 14.9213 35.9306 14.9043 35.9482 14.8746L35.9877 14.8079L35.8745 14.7514ZM35.8631 14.6113L36.2943 14.8267L36.2329 14.9304L36.0523 14.8402L36.0479 14.8477C36.0333 14.8724 36.03 14.8898 36.028 14.9049C36.0276 14.9174 36.0364 14.9379 36.048 14.9597L36.0531 14.9686L36.1335 15.0984L36.0618 15.2194L35.979 15.082C35.9572 15.0423 35.9485 15.0156 35.9534 14.9956C35.9346 15.0214 35.9092 15.0408 35.8747 15.0459C35.8415 15.0549 35.8087 15.0513 35.7736 15.0338C35.744 15.019 35.7268 15.0009 35.7126 14.9777C35.701 14.956 35.6963 14.9344 35.6999 14.9106C35.7063 14.8882 35.7199 14.8533 35.7418 14.8163L35.8631 14.6113ZM35.3968 15.3992L35.6015 15.0534L36.0326 15.2688L35.9712 15.3725L35.6317 15.2029L35.5484 15.3437L35.7424 15.4406C35.7909 15.4649 35.823 15.4873 35.836 15.5066C35.8517 15.5273 35.8579 15.5463 35.8559 15.5614C35.854 15.5764 35.845 15.5975 35.8275 15.6272C35.8187 15.642 35.8029 15.6629 35.7841 15.6887L35.7005 15.647C35.702 15.6445 35.7049 15.6396 35.7108 15.6297C35.7166 15.6198 35.7225 15.6099 35.7254 15.605C35.7342 15.5902 35.7332 15.5801 35.728 15.5711C35.7187 15.5632 35.6932 15.5473 35.6474 15.5244L35.3968 15.3992ZM35.5889 15.812L35.3464 15.6909L35.2718 15.8168C35.3875 15.881 35.4581 15.9387 35.4837 15.9898L35.5889 15.812ZM35.7183 15.7998L35.5429 16.0962L35.6534 16.1514L35.6037 16.2354L35.3989 16.1331L35.4237 16.0911C35.4124 16.0631 35.3888 16.0321 35.3503 15.9968C35.3118 15.9616 35.2366 15.9176 35.1249 15.8586L35.312 15.5425L35.6488 15.7107L35.6737 15.6687L35.8785 15.771L35.8288 15.855L35.7183 15.7998ZM34.7801 16.3232L34.6804 16.2734L34.733 16.1845L34.8327 16.2343L34.7801 16.3232ZM34.6851 16.4838L34.5854 16.434L34.6395 16.3426L34.7392 16.3924L34.6851 16.4838ZM35.0409 16.3959C35.0058 16.3784 34.9772 16.3737 34.9522 16.3804C34.9273 16.3872 34.9063 16.3991 34.8931 16.4213C34.88 16.4435 34.8791 16.4687 34.8865 16.4916C34.8966 16.5158 34.9164 16.5353 34.9488 16.5515L35.0409 16.3959ZM35.1511 16.4574L35.2314 16.363C35.263 16.398 35.2836 16.434 35.2904 16.4757C35.2917 16.5148 35.2847 16.5561 35.2584 16.6005C35.2189 16.6672 35.1654 16.7045 35.0938 16.7135C35.0414 16.7194 34.9829 16.7062 34.9263 16.6779C34.8536 16.6415 34.8058 16.5985 34.7858 16.5437C34.7658 16.4889 34.7718 16.4375 34.8025 16.3856C34.8376 16.3264 34.8855 16.2927 34.9491 16.2796C35.0099 16.2652 35.0834 16.2827 35.1696 16.3258L35.0161 16.5851C35.0512 16.6026 35.0798 16.6073 35.1116 16.6008C35.1365 16.5941 35.159 16.5797 35.1736 16.555C35.1838 16.5377 35.1858 16.5227 35.1808 16.5074C35.1801 16.491 35.1683 16.4755 35.1511 16.4574ZM34.8055 16.6815L34.7629 16.7947C34.7399 16.7864 34.7194 16.7857 34.6986 16.7913C34.6805 16.7983 34.6663 16.8104 34.6546 16.8302C34.6386 16.8574 34.6376 16.8825 34.6477 16.9067C34.6578 16.931 34.6843 16.957 34.7301 16.9799C34.7813 17.0055 34.8249 17.0144 34.8525 17.009C34.8828 17.005 34.9068 16.9881 34.9214 16.9634C34.9331 16.9437 34.9379 16.9237 34.9318 16.9046C34.9283 16.8869 34.9126 16.8662 34.8859 16.8465L34.9647 16.7547C35.01 16.7901 35.0361 16.8287 35.044 16.8743C35.0534 16.9174 35.0435 16.9636 35.0128 17.0155C34.9792 17.0723 34.9313 17.106 34.8704 17.1204C34.8122 17.1361 34.7454 17.1251 34.6753 17.0901C34.6053 17.0551 34.5616 17.0109 34.5417 16.9562C34.5217 16.9014 34.5306 16.8451 34.5643 16.7882C34.592 16.7413 34.6262 16.7072 34.6665 16.6921C34.7056 16.6732 34.7524 16.671 34.8055 16.6815ZM34.3881 17.4811L34.5444 17.5592L34.6043 17.4579C34.6277 17.4184 34.6423 17.3937 34.6469 17.38C34.653 17.3638 34.6523 17.3474 34.6461 17.3283C34.6412 17.3131 34.6252 17.2987 34.6037 17.2879C34.5875 17.2799 34.5684 17.2767 34.5532 17.2788C34.5354 17.2794 34.52 17.2878 34.5058 17.2999C34.4917 17.312 34.47 17.3428 34.4407 17.3922L34.3881 17.4811ZM34.151 17.3626L34.2884 17.4313L34.3308 17.3597C34.3557 17.3177 34.3717 17.2905 34.3749 17.2793C34.3839 17.2582 34.3873 17.2407 34.3823 17.2254C34.3747 17.2088 34.3642 17.1971 34.3426 17.1863C34.3264 17.1783 34.3088 17.1727 34.2922 17.1772C34.2756 17.1817 34.2602 17.19 34.2458 17.2084C34.2399 17.2183 34.2182 17.249 34.189 17.2984L34.151 17.3626ZM33.9897 17.4229L34.1183 17.2055C34.1431 17.1635 34.1648 17.1328 34.1792 17.1143C34.1951 17.0935 34.2176 17.0791 34.2371 17.0696C34.2608 17.0591 34.2843 17.0548 34.3105 17.0519C34.3393 17.0503 34.3638 17.0561 34.3908 17.0696C34.4177 17.0831 34.4403 17.1039 34.453 17.1295C34.47 17.154 34.4759 17.1793 34.4748 17.2108C34.5046 17.184 34.5353 17.1674 34.574 17.1611C34.6085 17.1559 34.6425 17.1633 34.6775 17.1808C34.7045 17.1943 34.7258 17.2114 34.7469 17.2347C34.7638 17.2592 34.7752 17.2872 34.7811 17.3126C34.7814 17.3415 34.779 17.3692 34.7642 17.4001C34.7552 17.4212 34.7303 17.4632 34.6906 17.5362L34.5825 17.719L33.9897 17.4229Z" fill="white"/>
</svg>
