<svg width="60" height="60" viewBox="0 0 60 60" fill="none" xmlns="http://www.w3.org/2000/svg">
<g clip-path="url(#clip0)">
<path d="M55.0288 9.95052C55.0288 9.94425 55.028 9.93799 55.0278 9.93162C55.0272 9.90668 55.0258 9.88207 55.023 9.85769C55.0219 9.84874 55.0203 9.8398 55.019 9.83085C55.0158 9.80837 55.0118 9.78622 55.0068 9.76453C55.0049 9.75592 55.0028 9.74742 55.0005 9.7388C54.9943 9.71521 54.9872 9.69205 54.979 9.66924C54.9775 9.66488 54.9765 9.6604 54.9749 9.65615L52.7883 3.83129C52.5678 3.24435 52.034 2.86499 51.4283 2.86499H43.8809C43.4469 2.86499 43.7753 3.37968 43.7753 3.83129C43.7753 4.2829 43.3413 4.50032 43.7753 4.50032H51.3522L53.0924 9.13599H36.6402L35.6093 4.50032H43.7753C44.2093 4.50032 44.0235 4.2829 44.0235 3.83129C44.0235 3.37968 44.3149 2.86499 43.8809 2.86499H34.6209H26.7033H9.8958C9.29005 2.86499 8.75631 3.24435 8.53587 3.83151L6.34921 9.65615C6.3476 9.66052 6.34674 9.66499 6.34512 9.66924C6.33696 9.69194 6.32986 9.71509 6.32363 9.7388C6.32137 9.74742 6.31922 9.75592 6.31729 9.76453C6.31234 9.78634 6.30837 9.80848 6.30514 9.83085C6.30385 9.8398 6.30224 9.84874 6.30117 9.85769C6.29848 9.88207 6.29697 9.90668 6.29633 9.93162C6.29622 9.93788 6.29547 9.94414 6.29536 9.95052L6.29525 9.95354V21.9663C6.29525 22.4179 6.64703 22.784 7.08103 22.784C7.51504 22.784 7.86681 22.4179 7.86681 21.9663V10.7713H24.5231V23.1999C24.5231 23.686 24.7982 24.1288 25.2242 24.3283C25.3801 24.4013 25.5462 24.437 25.7111 24.437C25.9966 24.437 26.279 24.3303 26.5004 24.126L30.6621 20.2895L34.8238 24.1259C35.1732 24.4484 35.6742 24.5277 36.1002 24.3283C36.526 24.1287 36.8012 23.686 36.8012 23.1999V10.7713H53.4573V47.4463C53.4573 48.033 52.9985 48.5105 52.4347 48.5105H38.0267C38.0267 48.5012 38.0257 48.4919 38.0256 48.4826C38.0247 48.4093 38.0221 48.336 38.0161 48.2633C39.3689 48.6365 40.8144 47.913 41.3566 46.5295C41.6417 45.8018 41.6375 45.0021 41.3446 44.2779C41.317 44.2096 41.2866 44.1434 41.2546 44.0782C41.2486 44.0663 41.243 44.0542 41.237 44.0423C41.2056 43.9802 41.172 43.9194 41.1367 43.8603C41.1298 43.8487 41.1227 43.8376 41.1157 43.8261C41.0783 43.7654 41.0395 43.7058 40.9981 43.6484L40.9958 43.6453C40.9547 43.5886 40.9113 43.534 40.8665 43.4807C40.8583 43.4709 40.8502 43.4611 40.8419 43.4514C40.7976 43.3999 40.7515 43.3502 40.7037 43.3022C40.6944 43.2928 40.6849 43.2837 40.6755 43.2746C40.6255 43.2257 40.5743 43.1781 40.521 43.1333C40.5192 43.1318 40.5174 43.1304 40.5155 43.1289C40.4631 43.085 40.4086 43.0434 40.353 43.0033C40.343 42.9961 40.3331 42.9887 40.3229 42.9815C40.2674 42.9426 40.2104 42.9058 40.1519 42.8708C40.1471 42.8679 40.1427 42.8645 40.1377 42.8616C40.4699 42.5626 40.732 42.1841 40.9027 41.7486C41.1878 41.0209 41.1836 40.2212 40.8907 39.4968C40.6345 38.863 40.1841 38.3532 39.6071 38.037C39.5247 37.9918 39.4397 37.9505 39.3523 37.9135L27.1226 32.7244L32.8153 30.8909C34.1696 30.4546 34.9324 28.9515 34.5156 27.5404C34.3601 27.0137 34.0517 26.5694 33.6534 26.2447C33.0607 25.7615 32.2685 25.5433 31.4828 25.715C31.479 25.7159 31.4754 25.7165 31.4716 25.7175C31.4281 25.7277 27.064 26.7488 22.5061 27.6736C22.3039 27.7147 22.1069 27.7543 21.9127 27.7932C21.7573 27.8243 21.604 27.8549 21.4537 27.8847C21.4105 27.8933 21.3672 27.9018 21.3243 27.9103C21.0588 27.9627 20.8016 28.0129 20.5516 28.0613C20.451 28.0807 20.3513 28.1 20.2531 28.1187C14.5291 29.216 12.9211 29.2357 12.4749 29.1728L12.4699 29.1721C12.4632 29.1711 12.4565 29.17 12.4503 29.169C12.4457 29.1683 12.4416 29.1675 12.4374 29.1668C12.4344 29.1662 12.4311 29.1657 12.4282 29.1652C12.4004 29.16 12.3787 29.1545 12.3619 29.1492L12.2332 29.0947L12.3936 28.6852C12.5514 28.2826 12.549 27.8401 12.3871 27.4394C12.3465 27.3392 12.2972 27.2446 12.24 27.1565C12.0685 26.8922 11.8259 26.6864 11.5357 26.5633L7.31523 24.7726C6.92841 24.6083 6.50312 24.6109 6.11802 24.7794C5.73282 24.948 5.43392 25.2626 5.27614 25.6651L0.115312 38.8357C-0.21035 39.6668 0.174533 40.6186 0.97321 40.9576L5.19381 42.7483C5.38652 42.8301 5.58589 42.8688 5.78226 42.8688C6.39951 42.8688 6.9857 42.4861 7.2328 41.8556L7.2716 41.7567L8.24471 42.1695L8.24643 42.1702C9.1772 42.5651 10.0348 43.1286 10.777 43.8278C10.912 43.955 11.0431 44.0866 11.1703 44.2225C11.2974 44.3584 11.4204 44.4986 11.5392 44.6429C11.5985 44.7151 11.6569 44.7883 11.7139 44.8625C12.7955 46.2658 14.2133 47.3667 15.814 48.0459L16.9088 48.5104H8.88959C8.32575 48.5104 7.86692 48.0329 7.86692 47.4462V45.3773C7.86692 44.9256 7.51514 44.5596 7.08114 44.5596C6.64714 44.5596 6.29536 44.9256 6.29536 45.3773V47.4462C6.29536 48.9347 7.45904 50.1457 8.88959 50.1457H20.7631L30.8856 54.4406C31.2341 54.5884 31.5946 54.6585 31.9496 54.6584C33.0651 54.6584 34.1246 53.9667 34.5712 52.8272C34.7543 52.3598 34.8131 51.8713 34.7638 51.4016C35.2903 51.4803 35.8362 51.4081 36.3311 51.1858C36.8339 50.9598 37.2507 50.5998 37.5467 50.1456H52.4348C53.8652 50.1456 55.029 48.9347 55.029 47.4461V9.95365L55.0288 9.95052ZM27.328 4.50032H33.9962L35.027 9.13599H26.2971L27.328 4.50032ZM24.6841 9.13599H8.23171L9.9719 4.50032H25.7149L24.6841 9.13599ZM35.2298 22.3154L31.4505 18.8315C31.2258 18.6244 30.944 18.5208 30.6623 18.5208C30.3805 18.5208 30.0986 18.6244 29.8738 18.8315L26.0947 22.3154V10.7713H35.2298V22.3154ZM5.78032 41.2311L1.57327 39.4461L6.72861 26.2898L10.9357 28.0749L5.78032 41.2311ZM37.1734 46.1656L36.2715 45.7829L36.2702 45.7823L36.2692 45.7819L26.8768 41.7968C26.475 41.6264 26.0164 41.827 25.8525 42.2453C25.6886 42.6635 25.8815 43.1407 26.2835 43.3112L35.6759 47.2963C35.7151 47.313 35.753 47.3314 35.7897 47.3517C35.8 47.3574 35.8096 47.3643 35.8197 47.3703C35.8455 47.3855 35.8714 47.4007 35.8958 47.4176C35.9075 47.4257 35.9182 47.4351 35.9296 47.4436C35.9512 47.4597 35.9733 47.4756 35.9937 47.4931C36.006 47.5036 36.0172 47.5153 36.0291 47.5263C36.0474 47.5432 36.0661 47.5595 36.0833 47.5774C36.0952 47.5897 36.1059 47.6032 36.1173 47.616C36.1331 47.6336 36.1493 47.651 36.1641 47.6695C36.1754 47.6837 36.1853 47.6988 36.1961 47.7135C36.2095 47.7318 36.2235 47.7498 36.2358 47.7688C36.2463 47.7847 36.2552 47.8015 36.2648 47.8177C36.276 47.8365 36.2878 47.855 36.2981 47.8743C36.3073 47.8918 36.315 47.91 36.3235 47.9278C36.3326 47.9469 36.3423 47.9657 36.3505 47.9853C36.3583 48.0041 36.3647 48.0235 36.3717 48.0426C36.3788 48.062 36.3865 48.081 36.3927 48.1007C36.399 48.1205 36.4037 48.1407 36.409 48.1607C36.4142 48.1805 36.4202 48.2 36.4246 48.22C36.429 48.2403 36.4318 48.2608 36.4353 48.2812C36.4389 48.3015 36.4429 48.3217 36.4455 48.3423C36.4481 48.3628 36.4491 48.3836 36.4507 48.4043C36.4523 48.4251 36.4547 48.4458 36.4553 48.4666C36.4559 48.4871 36.455 48.5078 36.4548 48.5284C36.4545 48.5496 36.4549 48.5709 36.4536 48.5922C36.4524 48.6125 36.4495 48.6327 36.4473 48.653C36.4451 48.6748 36.4434 48.6966 36.4399 48.7183C36.4368 48.7382 36.432 48.758 36.428 48.7779C36.4235 48.7999 36.4197 48.8219 36.414 48.8439C36.4091 48.8632 36.4024 48.8824 36.3965 48.9017C36.3898 48.9236 36.3837 48.9455 36.3759 48.9671C36.3692 48.982 36.3626 48.997 36.3565 49.0121C36.3551 49.0155 36.3544 49.0191 36.3531 49.0225C36.2303 49.3174 36.0038 49.5517 35.7079 49.6847C35.3822 49.8308 35.0094 49.836 34.6848 49.6982L33.0207 48.9922C33.013 48.9889 33.0051 48.9867 32.9974 48.9837C32.9895 48.98 32.9821 48.9757 32.9742 48.9724L25.335 45.7311C24.9329 45.5607 24.4745 45.7613 24.3107 46.1796C24.1468 46.5978 24.3397 47.075 24.7416 47.2455L32.3808 50.4868C32.3889 50.4903 32.3972 50.4927 32.4055 50.4959C32.4129 50.4992 32.4198 50.5033 32.4274 50.5065C33.0685 50.7786 33.3775 51.5427 33.1161 52.2098C32.8546 52.8772 32.1207 53.1988 31.4792 52.9265L21.2155 48.5716L21.2142 48.571L16.4078 46.5316C15.5617 46.1726 14.776 45.6743 14.0824 45.0613C13.6663 44.6935 13.2833 44.2845 12.9403 43.8393C12.6022 43.4008 12.2314 42.9918 11.8325 42.6159C10.9547 41.7891 9.94062 41.1229 8.84015 40.6558L7.86542 40.2423L9.80617 35.2895L11.6402 30.6091L11.7755 30.6665C11.9029 30.7205 12.0845 30.7972 12.5733 30.8164C13.184 30.8452 14.1943 30.7789 16.0043 30.5128C17.2354 30.3318 18.7456 30.0701 20.5086 29.7326C20.552 29.7243 20.5951 29.716 20.639 29.7077C20.7214 29.6918 20.8047 29.6757 20.8883 29.6596C20.9534 29.647 21.0187 29.6343 21.0846 29.6214C21.1596 29.6068 21.235 29.5921 21.3108 29.5773C21.3913 29.5615 21.4728 29.5455 21.5547 29.5293C21.6203 29.5163 21.6857 29.5034 21.7519 29.4904C21.8518 29.4706 21.9534 29.4503 22.0552 29.43C22.1077 29.4194 22.1596 29.4092 22.2125 29.3986C22.3685 29.3673 22.5266 29.3356 22.6876 29.303C27.2298 28.3837 31.6139 27.3605 31.8109 27.3144C31.8306 27.3101 31.8502 27.3077 31.8699 27.3047C32.3746 27.2269 32.8691 27.5307 33.0139 28.0208C33.0648 28.193 33.0707 28.3687 33.0386 28.534C32.9682 28.8978 32.7142 29.2118 32.351 29.3286L24.5607 31.8377C24.2435 31.9399 24.0223 32.2382 24.008 32.5833C23.9936 32.9283 24.189 33.2456 24.4964 33.376L38.7593 39.4278C39.0699 39.5596 39.3126 39.8093 39.4427 40.1311C39.5727 40.4528 39.5747 40.808 39.4479 41.1311C39.3212 41.4544 39.0813 41.7069 38.7721 41.8422C38.6176 41.9098 38.4549 41.944 38.2921 41.945C38.2897 41.945 38.2874 41.9447 38.285 41.9447C38.2468 41.9447 38.2086 41.9431 38.1704 41.9394C38.1592 41.9383 38.148 41.9358 38.1367 41.9345C38.1076 41.9308 38.0784 41.9273 38.0495 41.9215C38.0313 41.9178 38.0132 41.9122 37.995 41.9078C37.9733 41.9024 37.9515 41.8978 37.93 41.8912C37.9078 41.8844 37.8859 41.8753 37.864 41.8672C37.8466 41.8607 37.8289 41.8553 37.8117 41.848L28.4184 37.8625C28.0166 37.6919 27.5581 37.8927 27.3942 38.311C27.2303 38.7291 27.4232 39.2064 27.8252 39.3769L39.2131 44.2088C39.2908 44.2416 39.3642 44.282 39.4327 44.329C39.6381 44.4699 39.799 44.6707 39.8965 44.912C40.0103 45.1935 40.026 45.5006 39.9432 45.7895C39.9314 45.8308 39.9175 45.8717 39.9017 45.9121C39.8854 45.9538 39.8672 45.9942 39.8473 46.0331C39.801 46.1237 39.7446 46.2055 39.6816 46.2801C39.6425 46.3265 39.6007 46.3696 39.5562 46.4092C39.5491 46.4155 39.5426 46.4226 39.5354 46.4287C39.2487 46.6727 38.8653 46.7776 38.4907 46.6989C38.4147 46.6829 38.3392 46.6602 38.2648 46.6286L37.1734 46.1656Z" fill="#034899"/>
<path d="M3.42743 37.3513L5.13263 38.0548L4.45663 39.8292L2.75142 39.1257L3.42743 37.3513Z" fill="#034899"/>
<path d="M48.6674 23.0356H43.0482C42.5736 23.0356 42.1891 23.4628 42.1891 23.99C42.1891 24.5172 42.5736 24.9444 43.0482 24.9444H48.6674C49.1419 24.9444 49.5264 24.5172 49.5264 23.99C49.5264 23.4628 49.1418 23.0356 48.6674 23.0356Z" fill="#E6330F"/>
<path fill-rule="evenodd" clip-rule="evenodd" d="M47.3675 20.4681V14.4463H43.1063V21.8364L47.3675 20.4681Z" fill="#F44336"/>
<path fill-rule="evenodd" clip-rule="evenodd" d="M45.8886 17.5753C45.8886 17.5753 45.7025 17.5753 45.3437 17.5753C44.9849 17.5753 44.4578 17.9282 44.4578 18.7648C44.4578 19.4489 44.8698 19.7017 45.2773 19.7017C45.5076 19.7017 45.8886 19.3095 45.8886 18.8433V17.5753ZM47.1155 19.9588H45.8886V19.6407C45.6804 19.828 45.2419 20.0938 44.7502 20.0938C44.2629 20.0938 43.3416 19.754 43.3416 18.7518C43.3416 17.7539 44.5199 17.2572 45.202 17.2572C45.8841 17.2572 45.8886 17.2572 45.8886 17.2572C45.8886 16.8912 45.8886 16.804 45.8886 16.5469C45.8886 16.2942 45.7025 16.0676 45.3703 16.0676C45.0337 16.0676 44.6262 16.2855 44.6262 16.8433H43.6472C43.6472 16.4729 43.9042 15.7539 45.3792 15.7539C46.8586 15.7539 47.0136 16.4075 47.0136 16.6995C47.0136 16.9958 47.0136 19.4141 47.0136 19.5535C47.0136 19.7932 47.1155 19.9588 47.1155 19.9588Z" fill="white"/>
</g>
<defs>
<clipPath id="clip0">
<rect width="60" height="60" fill="white"/>
</clipPath>
</defs>
</svg>
