<svg width="60" height="60" viewBox="0 0 60 60" fill="none" xmlns="http://www.w3.org/2000/svg">
<path d="M53.606 15.0302H35.2587V14.0304C35.2587 13.687 35.2117 13.3528 35.1252 13.0305H44.4692C46.9477 13.0305 48.964 11.3721 48.964 9.33352V3.69703C48.964 1.65844 46.9477 0 44.4692 0H43.2505C41.5605 0 39.9409 0.515039 38.6904 1.45008L32.3296 6.20613C31.8929 6.53273 31.8607 7.08855 32.2578 7.44773C32.6548 7.8068 33.3307 7.83352 33.7672 7.5068L40.128 2.75063C40.9843 2.11043 42.0932 1.75781 43.2505 1.75781H44.4692C45.7693 1.75781 46.8269 2.62781 46.8269 3.69703V9.3334C46.8269 10.4027 45.7693 11.2726 44.4692 11.2726H37.5245L42.806 8.16973C43.2863 7.88754 43.3974 7.33863 43.0545 6.94371C42.7114 6.54867 42.044 6.45727 41.5639 6.73934L34.0422 11.1584C33.0088 10.0847 31.4121 9.39375 29.6217 9.39375H28.8926L18.2686 1.44996C17.018 0.515039 15.3984 0 13.7084 0H12.4897C10.0112 0 7.99485 1.65844 7.99485 3.69703V9.3334C7.99485 11.372 10.0112 13.0304 12.4897 13.0304H21.8337C21.7472 13.3527 21.7002 13.687 21.7002 14.0303V15.0301H3.35293C1.50414 15.0301 0 16.2673 0 17.7878V27.1816C0 27.6671 0.47844 28.0605 1.06858 28.0605H2.28435V57.2422C2.28435 58.7629 3.78848 59.9999 5.63713 59.9999H51.3219C53.1707 59.9999 54.6747 58.7627 54.6747 57.2422V28.0607H55.8905C56.4806 28.0607 56.959 27.6673 56.959 27.1818V17.7879C56.9589 16.2673 55.4549 15.0302 53.606 15.0302ZM10.132 9.3334V3.69703C10.132 2.6277 11.1896 1.75781 12.4897 1.75781H13.7084C14.8657 1.75781 15.9746 2.11043 16.831 2.75074L25.9157 9.54352C24.7132 9.80145 23.6668 10.3792 22.917 11.1585L15.3952 6.73945C14.915 6.45738 14.2476 6.54891 13.9045 6.94383C13.5615 7.33887 13.6727 7.88777 14.153 8.16984L19.4345 11.2727H12.4899C11.1896 11.2726 10.132 10.4027 10.132 9.3334ZM23.8374 14.0304C23.8374 12.4431 25.4075 11.1518 27.3372 11.1518H29.6214C31.5513 11.1518 33.1212 12.4432 33.1212 14.0304V15.0302H23.8372L23.8374 14.0304ZM28.4795 52.4849C29.2805 52.4849 30.0677 52.4354 30.8372 52.341V58.2422H26.1216V52.341C26.8913 52.4354 27.6784 52.4849 28.4795 52.4849ZM28.4795 50.7271C20.8817 50.7271 14.7006 45.643 14.7006 39.394C14.7006 33.1448 20.8818 28.0608 28.4795 28.0608C36.0771 28.0608 42.2583 33.1448 42.2583 39.394C42.2583 45.643 36.0772 50.7271 28.4795 50.7271ZM28.4795 26.3029C27.6784 26.3029 26.8913 26.3523 26.1217 26.4468V16.788H30.8373V26.4468C30.0677 26.3524 29.2805 26.3029 28.4795 26.3029ZM4.42151 57.2423V28.0607H17.0583C17.6484 28.0607 18.1269 27.6673 18.1269 27.1818C18.1269 26.6964 17.6484 26.3029 17.0583 26.3029H2.13717V17.7879C2.13717 17.2366 2.68257 16.788 3.35293 16.788H23.9846V26.8354C17.3904 28.4347 12.5634 33.459 12.5634 39.3939C12.5634 45.3287 17.3904 50.353 23.9846 51.9524V58.2422H5.63713C4.96677 58.2422 4.42151 57.7936 4.42151 57.2423ZM54.8217 26.3029H39.9006C39.3105 26.3029 38.832 26.6964 38.832 27.1818C38.832 27.6673 39.3105 28.0607 39.9006 28.0607H52.5374V57.2423C52.5374 57.7936 51.992 58.2422 51.3218 58.2422H32.9743V51.9524C39.5685 50.353 44.3955 45.3287 44.3955 39.3939C44.3955 33.459 39.5685 28.4347 32.9743 26.8354V16.788H53.606C54.2763 16.788 54.8217 17.2366 54.8217 17.7879V26.3029Z" fill="#034899"/>
<path d="M32.2778 32.0194C31.7333 31.8315 31.1074 32.0421 30.879 32.4898L24.3215 45.3415C24.0931 45.789 24.3491 46.3042 24.8932 46.492C25.0283 46.5386 25.1685 46.5607 25.3063 46.5607C25.7239 46.5607 26.1204 46.3582 26.2921 46.0216L32.8496 33.1699C33.078 32.7224 32.8219 32.2074 32.2778 32.0194Z" fill="#E6330F"/>
<path d="M28.0176 35.0003C28.0176 32.9887 26.2385 31.3521 24.0516 31.3521C21.8647 31.3521 20.0856 32.9887 20.0856 35.0003C20.0856 37.012 21.8647 38.6486 24.0516 38.6486C26.2385 38.6486 28.0176 37.012 28.0176 35.0003ZM24.0514 36.8908C23.043 36.8908 22.2226 36.0428 22.2226 35.0003C22.2226 33.958 23.043 33.1099 24.0514 33.1099C25.0599 33.1099 25.8803 33.958 25.8803 35.0003C25.8804 36.0427 25.06 36.8908 24.0514 36.8908Z" fill="#E6330F"/>
<path d="M32.9077 40.1392C30.7208 40.1392 28.9417 41.7757 28.9417 43.7874C28.9417 45.7991 30.7208 47.4357 32.9077 47.4357C35.0945 47.4357 36.8737 45.7991 36.8737 43.7874C36.8737 41.7757 35.0945 40.1392 32.9077 40.1392ZM32.9077 45.6778C31.8992 45.6778 31.0788 44.8297 31.0788 43.7873C31.0788 42.7448 31.8992 41.8969 32.9077 41.8969C33.9161 41.8969 34.7365 42.7448 34.7365 43.7873C34.7365 44.8297 33.9161 45.6778 32.9077 45.6778Z" fill="#E6330F"/>
</svg>
