<svg width="60" height="60" viewBox="0 0 60 60" fill="none" xmlns="http://www.w3.org/2000/svg">
<path d="M57 40.7546H32.7998C32 40.7546 31.2002 41.094 30.7002 41.7734L26.8999 46.0756C26.7002 46.3017 26.5 46.415 26.2002 46.415H3C1.2998 46.415 0 47.8865 0 49.8112V56.6037C0 58.5284 1.2998 59.9999 3 59.9999H57C58.7002 59.9999 60 58.5284 60 56.6037V44.1509C60 42.2261 58.7002 40.7546 57 40.7546ZM58 56.6037C58 57.2831 57.6001 57.7358 57 57.7358H3C2.3999 57.7358 2 57.2831 2 56.6037V55.4716H29.2002C30 55.4716 30.7998 55.1322 31.2998 54.4529L36.1001 49.0186C36.2998 48.7925 36.5 48.6792 36.7998 48.6792H40V46.415H36.7998C36 46.415 35.2002 46.7544 34.7002 47.4338L29.8999 52.8681C29.7002 53.0942 29.5 53.2075 29.2002 53.2075H2V49.8112C2 49.1319 2.3999 48.6792 3 48.6792H26.2002C27 48.6792 27.7998 48.3398 28.2998 47.6604L32.1001 43.3582C32.2998 43.1321 32.5 43.0188 32.7998 43.0188H57C57.6001 43.0188 58 43.4715 58 44.1509V56.6037Z" fill="#034899"/>
<path d="M25.7998 19.4719C27 20.8301 29 20.8301 30.2002 19.4719C31.3999 18.1132 31.3999 15.849 30.2002 14.4903L25.7002 9.396L24.2998 10.9813L28.7998 16.0757C29.2002 16.5284 29.2002 17.3205 28.7998 17.8866C28.3999 18.4526 27.7002 18.3398 27.2002 17.8866L21.3999 11.3207H16V13.5849H20.6001L25.7998 19.4719Z" fill="#034899"/>
<path d="M4 13.585H6V15.8491H4V13.585Z" fill="#034899"/>
<path d="M13.7002 23.8869C14.2998 24.5663 15 24.9057 15.7998 24.9057H20V32.8302C20 34.7549 21.2998 36.2264 23 36.2264H49C50.7002 36.2264 52 34.7549 52 32.8302V14.717C52 12.7922 50.7002 11.3208 49 11.3208H35.3999L27.2998 2.15083C26.7002 1.47148 26 1.13208 25.2002 1.13208H12V0H0V20.3774H10.6001L13.7002 23.8869ZM25.2002 3.39623C25.5 3.39623 25.7002 3.50954 25.8999 3.73563L32.6001 11.3208H31V13.5849H49C49.6001 13.5849 50 14.0376 50 14.717V16.9811H33V19.2453H50V22.6415H24V24.9057H50V32.8302C50 33.5095 49.6001 33.9623 49 33.9623H23C22.3999 33.9623 22 33.5095 22 32.8302V18.1132H20V22.6415H15.7998C15.5 22.6415 15.2998 22.5282 15.1001 22.3021L12 18.7926V3.39623H25.2002ZM10 18.1132H2V2.26415H4V11.3208H6V2.26415H10V18.1132Z" fill="#034899"/>
<path d="M54 14.717H59V16.9812H54V14.717Z" fill="#E6330F"/>
<path d="M55 20.3772H59V22.6413H55V20.3772Z" fill="#E6330F"/>
<path d="M56 26.0378H59V28.302H56V26.0378Z" fill="#E6330F"/>
<path d="M12 38.4907V36.2265H14V33.9624H12V31.6982H10V33.9624H8V36.2265H10V38.4907H12Z" fill="#E6330F"/>
<path d="M48 6.79245V4.5283H50V2.26415H48V0H46V2.26415H44V4.5283H46V6.79245H48Z" fill="#E6330F"/>
<path fill-rule="evenodd" clip-rule="evenodd" d="M27.0689 27.9872V23.0146H24V29.1171L27.0689 27.9872Z" fill="#F44336"/>
<path fill-rule="evenodd" clip-rule="evenodd" d="M26.0035 25.5978C26.0035 25.5978 25.8695 25.5978 25.6111 25.5978C25.3527 25.5978 24.9731 25.8892 24.9731 26.5801C24.9731 27.145 25.2698 27.3536 25.5633 27.3536C25.7291 27.3536 26.0035 27.0298 26.0035 26.6448V25.5978ZM26.8872 27.5659H26.0035V27.3033C25.8536 27.458 25.5377 27.6775 25.1836 27.6775C24.8327 27.6775 24.1692 27.3968 24.1692 26.5693C24.1692 25.7453 25.0178 25.3351 25.509 25.3351C26.0003 25.3351 26.0035 25.3351 26.0035 25.3351C26.0035 25.0329 26.0035 24.9609 26.0035 24.7486C26.0035 24.5399 25.8695 24.3528 25.6303 24.3528C25.3878 24.3528 25.0943 24.5327 25.0943 24.9933H24.3893C24.3893 24.6874 24.5743 24.0938 25.6366 24.0938C26.7021 24.0938 26.8138 24.6335 26.8138 24.8745C26.8138 25.1192 26.8138 27.1162 26.8138 27.2313C26.8138 27.4292 26.8872 27.5659 26.8872 27.5659Z" fill="white"/>
<path fill-rule="evenodd" clip-rule="evenodd" d="M40.8247 29.2181V29.067H40.9587V29.2181H40.8247ZM40.8534 29.013L40.8183 28.61V28.4265H40.965V28.61L40.93 29.013H40.8534ZM40.5376 28.9446C40.5216 28.9482 40.4929 28.9554 40.4578 28.9662C40.4196 28.9734 40.3972 28.9842 40.3845 28.9914C40.3685 29.0058 40.359 29.0238 40.359 29.0454C40.359 29.067 40.3653 29.085 40.3781 29.0993C40.394 29.1137 40.41 29.1245 40.4323 29.1245C40.4578 29.1245 40.4802 29.1137 40.5025 29.0958C40.5184 29.0814 40.528 29.067 40.5344 29.0454C40.5376 29.0346 40.5376 29.0094 40.5376 28.9734V28.9446ZM40.359 28.8223L40.2377 28.7971C40.2505 28.7395 40.276 28.7 40.3079 28.6712C40.343 28.6424 40.3909 28.6316 40.4578 28.6316C40.5184 28.6316 40.5599 28.6388 40.5918 28.6568C40.6205 28.6712 40.6397 28.6928 40.6524 28.7179C40.6652 28.7395 40.6716 28.7863 40.6716 28.8511L40.6684 29.0274C40.6684 29.0778 40.6716 29.1137 40.6748 29.1389C40.6779 29.1641 40.6875 29.1893 40.7003 29.2181H40.5663C40.5631 29.2073 40.5568 29.1929 40.5536 29.1713C40.5504 29.1641 40.5504 29.1569 40.5471 29.1533C40.5249 29.1821 40.4993 29.2001 40.477 29.2109C40.4483 29.2253 40.4227 29.2325 40.3909 29.2325C40.3398 29.2325 40.2983 29.2145 40.2696 29.1821C40.2409 29.1497 40.225 29.1101 40.225 29.0598C40.225 29.031 40.2313 28.9986 40.2441 28.9734C40.2569 28.9518 40.276 28.9302 40.3016 28.9158C40.3271 28.9015 40.3622 28.8907 40.41 28.8835C40.4706 28.8691 40.5152 28.8547 40.5376 28.8439V28.8295C40.5376 28.8007 40.5312 28.7791 40.5184 28.7647C40.5057 28.7539 40.4833 28.7467 40.4483 28.7467C40.4227 28.7467 40.4036 28.7539 40.3909 28.7647C40.3781 28.7755 40.3685 28.7935 40.359 28.8223ZM39.7209 28.6424H40.1803V28.7647H40.0176V29.2181H39.8836V28.7647H39.7209V28.6424ZM39.185 28.6424H39.319V28.8547H39.5136V28.6424H39.6475V29.2181H39.5136V28.977H39.319V29.2181H39.185V28.6424ZM38.7001 28.9302C38.7001 28.9878 38.7129 29.031 38.7384 29.0598C38.7607 29.0922 38.7894 29.1065 38.8245 29.1065C38.8596 29.1065 38.8883 29.0922 38.9138 29.0598C38.9362 29.031 38.9489 28.9878 38.9489 28.9302C38.9489 28.8727 38.9362 28.8295 38.9138 28.8007C38.8883 28.7719 38.8596 28.7539 38.8245 28.7539C38.7894 28.7539 38.7607 28.7719 38.7384 28.8007C38.7129 28.8295 38.7001 28.8763 38.7001 28.9302ZM38.5629 28.923C38.5629 28.8727 38.5757 28.8259 38.5948 28.7755C38.6204 28.7287 38.6491 28.6928 38.6905 28.6712C38.7288 28.6424 38.7766 28.6316 38.8245 28.6316C38.9011 28.6316 38.9649 28.6604 39.0128 28.7179C39.0605 28.7719 39.0861 28.8439 39.0861 28.9302C39.0861 29.0166 39.0605 29.0886 39.0128 29.1461C38.9617 29.2037 38.9011 29.2325 38.8245 29.2325C38.7798 29.2325 38.7352 29.2181 38.6937 29.1965C38.6491 29.1713 38.6204 29.1353 38.5948 29.0886C38.5757 29.0454 38.5629 28.9878 38.5629 28.923ZM37.8898 28.6424H38.0557L38.1801 29.0418L38.3077 28.6424H38.4736V29.2181H38.3587V28.8403L38.2375 29.2181H38.1227L38.0047 28.8403V29.2181H37.8898V28.6424ZM37.6569 28.8835C37.6537 28.8367 37.6442 28.8043 37.625 28.7827C37.6059 28.7611 37.5836 28.7467 37.5581 28.7467C37.5262 28.7467 37.5038 28.7611 37.4846 28.7827C37.4655 28.8079 37.4559 28.8403 37.4559 28.8835H37.6569ZM37.6474 29.0346L37.7814 29.0598C37.7654 29.1137 37.7367 29.1569 37.7016 29.1893C37.6633 29.2145 37.6187 29.2325 37.5612 29.2325C37.4719 29.2325 37.4081 29.2001 37.3666 29.1317C37.3316 29.0814 37.3156 29.013 37.3156 28.9374C37.3156 28.8403 37.3379 28.7647 37.3826 28.7108C37.4241 28.6568 37.4815 28.6316 37.5484 28.6316C37.6218 28.6316 37.6824 28.6604 37.7271 28.7179C37.7686 28.7719 37.7909 28.8583 37.7877 28.9734H37.4528C37.4528 29.0202 37.4655 29.0526 37.4846 29.0814C37.507 29.1029 37.5325 29.1173 37.5612 29.1173C37.5836 29.1173 37.5995 29.1101 37.6155 29.0958C37.6314 29.085 37.641 29.0634 37.6474 29.0346ZM36.8849 28.923C36.8849 28.9842 36.8977 29.031 36.92 29.0634C36.9424 29.0958 36.9711 29.1101 37.003 29.1101C37.0348 29.1101 37.0604 29.0958 37.0795 29.067C37.1019 29.0382 37.1114 28.9914 37.1114 28.9302C37.1114 28.8691 37.0986 28.8223 37.0795 28.7935C37.0572 28.7647 37.0317 28.7503 36.9998 28.7503C36.9679 28.7503 36.9392 28.7647 36.92 28.7935C36.8977 28.8223 36.8849 28.8655 36.8849 28.923ZM36.7541 28.6424H36.8786V28.7287C36.8945 28.7 36.9168 28.6784 36.9455 28.6568C36.9743 28.6388 37.003 28.6316 37.038 28.6316C37.0954 28.6316 37.1465 28.6568 37.188 28.7108C37.2294 28.7611 37.2486 28.8331 37.2486 28.9266C37.2486 29.0238 37.2294 29.0993 37.188 29.1497C37.1465 29.2037 37.0954 29.2325 37.038 29.2325C37.0093 29.2325 36.9838 29.2253 36.9583 29.2109C36.936 29.2001 36.9137 29.1785 36.8881 29.1461V29.434H36.7541V28.6424ZM35.8832 28.6424H36.0109V29.0022L36.2182 28.6424H36.349V29.2181H36.2214V28.8511L36.0109 29.2181H35.8832V28.6424ZM35.0123 28.6424H35.1399V29.0022L35.3473 28.6424H35.4781V29.2181H35.3505V28.8511L35.1399 29.2181H35.0123V28.6424ZM34.521 28.6424H34.655V28.8763C34.6774 28.8763 34.6933 28.8691 34.7029 28.8547C34.7124 28.8403 34.7221 28.8151 34.7348 28.7719C34.7508 28.7179 34.7699 28.682 34.7922 28.664C34.8114 28.6496 34.8401 28.6388 34.872 28.6388C34.8815 28.6388 34.9007 28.6424 34.9262 28.6424V28.7431C34.8911 28.7431 34.8656 28.7467 34.8592 28.7539C34.8496 28.7611 34.8369 28.7863 34.8241 28.8259C34.8114 28.8763 34.789 28.9086 34.7571 28.923C34.8018 28.9374 34.8369 28.977 34.8656 29.0454C34.8656 29.0526 34.8688 29.0526 34.872 29.0598L34.9454 29.2181H34.8018L34.7348 29.049C34.7221 29.0166 34.7093 28.995 34.6997 28.9842C34.6901 28.977 34.6742 28.9698 34.655 28.9698V29.2181H34.521V28.6424ZM34.2435 28.4121H34.3073C34.3042 28.4625 34.2882 28.5021 34.2626 28.5272C34.2339 28.556 34.202 28.5704 34.1606 28.5704C34.1159 28.5704 34.0809 28.556 34.0553 28.5272C34.0298 28.5021 34.0138 28.4625 34.0106 28.4121H34.0744C34.0777 28.4373 34.0872 28.4589 34.0999 28.4697C34.1127 28.4841 34.1319 28.4913 34.1606 28.4913C34.1829 28.4913 34.2052 28.4841 34.218 28.4697C34.2308 28.4589 34.2403 28.4373 34.2435 28.4121ZM33.9245 28.6424H34.0521V29.0022L34.2563 28.6424H34.3903V29.2181H34.2595V28.8511L34.0521 29.2181H33.9245V28.6424ZM33.4364 28.9302C33.4364 28.9878 33.4492 29.031 33.4715 29.0598C33.497 29.0922 33.5258 29.1065 33.5608 29.1065C33.5959 29.1065 33.6246 29.0922 33.6469 29.0598C33.6725 29.031 33.6821 28.9878 33.6821 28.9302C33.6821 28.8727 33.6725 28.8295 33.6469 28.8007C33.6246 28.7719 33.5959 28.7539 33.5608 28.7539C33.5258 28.7539 33.497 28.7719 33.4715 28.8007C33.4492 28.8295 33.4364 28.8763 33.4364 28.9302ZM33.2993 28.923C33.2993 28.8727 33.3088 28.8259 33.3312 28.7755C33.3535 28.7287 33.3854 28.6928 33.4236 28.6712C33.4652 28.6424 33.5098 28.6316 33.5608 28.6316C33.6374 28.6316 33.698 28.6604 33.7491 28.7179C33.7969 28.7719 33.8224 28.8439 33.8224 28.9302C33.8224 29.0166 33.7969 29.0886 33.7491 29.1461C33.698 29.2037 33.6342 29.2325 33.5608 29.2325C33.513 29.2325 33.4715 29.2181 33.4268 29.1965C33.3854 29.1713 33.3535 29.1353 33.3312 29.0886C33.3088 29.0454 33.2993 28.9878 33.2993 28.923ZM32.8622 28.923C32.8622 28.9842 32.8718 29.031 32.8973 29.0634C32.9196 29.0958 32.9451 29.1101 32.977 29.1101C33.0089 29.1101 33.0344 29.0958 33.0536 29.067C33.076 29.0382 33.0855 28.9914 33.0855 28.9302C33.0855 28.8691 33.076 28.8223 33.0536 28.7935C33.0344 28.7647 33.0057 28.7503 32.9738 28.7503C32.9419 28.7503 32.9164 28.7647 32.8941 28.7935C32.8718 28.8223 32.8622 28.8655 32.8622 28.923ZM32.7314 28.6424H32.8558V28.7287C32.8718 28.7 32.8941 28.6784 32.9196 28.6568C32.9483 28.6388 32.9802 28.6316 33.0122 28.6316C33.0728 28.6316 33.1206 28.6568 33.1621 28.7108C33.2035 28.7611 33.2227 28.8331 33.2227 28.9266C33.2227 29.0238 33.2035 29.0993 33.1621 29.1497C33.1206 29.2037 33.0696 29.2325 33.0122 29.2325C32.9834 29.2325 32.9579 29.2253 32.9356 29.2109C32.9132 29.2001 32.8877 29.1785 32.8622 29.1461V29.434H32.7314V28.6424ZM32.1955 28.6424H32.6549V28.7647H32.4921V29.2181H32.3581V28.7647H32.1955V28.6424ZM32.154 28.8151L32.0232 28.8403C32.0168 28.8115 32.0073 28.7899 31.9913 28.7719C31.9754 28.7575 31.9562 28.7503 31.9307 28.7503C31.8988 28.7503 31.8701 28.7647 31.8509 28.7899C31.8318 28.8151 31.8222 28.8583 31.8222 28.9194C31.8222 28.9878 31.8318 29.0382 31.8509 29.0634C31.8701 29.0922 31.8988 29.1065 31.9339 29.1065C31.9594 29.1065 31.9786 29.0993 31.9945 29.0814C32.0105 29.067 32.0232 29.0382 32.0296 28.9986L32.1604 29.0238C32.1476 29.0922 32.1221 29.1425 32.0806 29.1785C32.0455 29.2145 31.9913 29.2325 31.9275 29.2325C31.8509 29.2325 31.7935 29.2037 31.7489 29.1497C31.7042 29.0993 31.6819 29.0238 31.6819 28.9302C31.6819 28.8367 31.7042 28.7647 31.7489 28.7108C31.7935 28.6568 31.8541 28.6316 31.9307 28.6316C31.9913 28.6316 32.0392 28.646 32.0742 28.6784C32.1125 28.7072 32.138 28.7539 32.154 28.8151ZM31.1715 28.7395H31.0758C31.0406 28.7395 31.0151 28.7467 31.0024 28.7575C30.9864 28.7683 30.98 28.7863 30.98 28.8151C30.98 28.8403 30.9864 28.8619 31.0056 28.8727C31.0215 28.8835 31.047 28.8907 31.0853 28.8907H31.1715V28.7395ZM31.3055 28.6424V29.2181H31.1715V28.977H31.1619C31.13 28.977 31.1109 28.9842 31.0949 28.9914C31.0822 28.9986 31.0662 29.0202 31.0503 29.0454L31.0438 29.0562L30.9545 29.2181H30.7982L30.8939 29.049C30.9226 29.0022 30.945 28.977 30.9673 28.9698C30.9322 28.9662 30.9003 28.9518 30.878 28.9194C30.8524 28.8907 30.8397 28.8547 30.8397 28.8079C30.8397 28.7683 30.8493 28.7395 30.8652 28.7108C30.8812 28.6856 30.9003 28.6676 30.9258 28.6568C30.9513 28.6496 30.9928 28.6424 31.0406 28.6424H31.3055ZM30.2878 28.6424H30.7344V29.2181H30.6004V28.7647H30.4186V29.0238C30.4186 29.0886 30.4122 29.1353 30.3994 29.1605C30.3867 29.1893 30.3707 29.2073 30.3548 29.2145C30.3388 29.2217 30.3133 29.2253 30.275 29.2253C30.2559 29.2253 30.2272 29.2217 30.1921 29.2181V29.1065C30.1953 29.1065 30.2017 29.1065 30.2144 29.1065C30.2272 29.1065 30.2399 29.1065 30.2463 29.1065C30.2655 29.1065 30.275 29.0993 30.2814 29.0886C30.2846 29.0742 30.2878 29.0382 30.2878 28.977V28.6424ZM29.972 29.0922V28.7683H29.8093C29.8029 28.9266 29.7806 29.0346 29.7423 29.0922H29.972ZM30.0485 29.2181H29.6657V29.3656H29.5573V29.0922H29.6115C29.6338 29.0634 29.653 29.0202 29.6689 28.959C29.6849 28.8979 29.6912 28.7935 29.6944 28.6424H30.1028V29.0922H30.157V29.3656H30.0485V29.2181ZM29.0596 28.5704V28.4373H29.1744V28.5704H29.0596ZM28.8522 28.5704V28.4373H28.9703V28.5704H28.8522ZM29.117 28.8835C29.117 28.8367 29.1075 28.8043 29.0883 28.7827C29.0692 28.7611 29.0468 28.7467 29.0181 28.7467C28.9894 28.7467 28.9639 28.7611 28.9448 28.7827C28.9256 28.8079 28.916 28.8403 28.916 28.8835H29.117ZM29.1106 29.0346L29.2446 29.0598C29.2255 29.1137 29.2 29.1569 29.1617 29.1893C29.1234 29.2145 29.0787 29.2325 29.0213 29.2325C28.9352 29.2325 28.8714 29.2001 28.8267 29.1317C28.7948 29.0814 28.7789 29.013 28.7789 28.9374C28.7789 28.8403 28.798 28.7647 28.8427 28.7108C28.8873 28.6568 28.9416 28.6316 29.0086 28.6316C29.0851 28.6316 29.1425 28.6604 29.1872 28.7179C29.2319 28.7719 29.251 28.8583 29.251 28.9734H28.916C28.916 29.0202 28.9256 29.0526 28.9479 29.0814C28.9671 29.1029 28.9926 29.1173 29.0245 29.1173C29.0468 29.1173 29.0628 29.1101 29.0756 29.0958C29.0915 29.085 29.1011 29.0634 29.1106 29.0346ZM28.7151 28.8151L28.5811 28.8403C28.5779 28.8115 28.5683 28.7899 28.5524 28.7719C28.5364 28.7575 28.5173 28.7503 28.4918 28.7503C28.4567 28.7503 28.4312 28.7647 28.412 28.7899C28.3929 28.8151 28.3801 28.8583 28.3801 28.9194C28.3801 28.9878 28.3929 29.0382 28.412 29.0634C28.4312 29.0922 28.4599 29.1065 28.4918 29.1065C28.5173 29.1065 28.5396 29.0993 28.5556 29.0814C28.5715 29.067 28.5843 29.0382 28.5907 28.9986L28.7215 29.0238C28.7087 29.0922 28.6832 29.1425 28.6417 29.1785C28.6034 29.2145 28.5524 29.2325 28.4854 29.2325C28.412 29.2325 28.3546 29.2037 28.3099 29.1497C28.2653 29.0993 28.2429 29.0238 28.2429 28.9302C28.2429 28.8367 28.2653 28.7647 28.3099 28.7108C28.3546 28.6568 28.4152 28.6316 28.4886 28.6316C28.5492 28.6316 28.6002 28.646 28.6353 28.6784C28.6736 28.7072 28.6991 28.7539 28.7151 28.8151ZM27.7102 28.8727V29.0814H27.841C27.892 29.0814 27.9239 29.0814 27.9399 29.0778C27.959 29.0742 27.975 29.0634 27.9909 29.0454C28.0037 29.031 28.0101 29.0058 28.0101 28.977C28.0101 28.9554 28.0037 28.9338 27.9941 28.9194C27.9845 28.9015 27.9686 28.8907 27.9494 28.8835C27.9303 28.8763 27.8888 28.8727 27.825 28.8727H27.7102ZM27.7102 28.556V28.7395H27.8027C27.8569 28.7395 27.892 28.7395 27.9048 28.7359C27.9303 28.7323 27.9494 28.7251 27.9622 28.7108C27.975 28.6928 27.9814 28.6748 27.9814 28.646C27.9814 28.6244 27.9782 28.6028 27.9654 28.5884C27.9526 28.574 27.9367 28.5632 27.9112 28.5596C27.8984 28.5596 27.8569 28.556 27.7931 28.556H27.7102ZM27.5698 28.4265H27.8506C27.9048 28.4265 27.9463 28.4301 27.9718 28.4337C28.0005 28.4373 28.026 28.4517 28.0451 28.4661C28.0675 28.4841 28.0834 28.5057 28.0994 28.5308C28.1153 28.5596 28.1217 28.5884 28.1217 28.6244C28.1217 28.6604 28.1121 28.6964 28.093 28.7251C28.0771 28.7575 28.0547 28.7791 28.0228 28.7971C28.0643 28.8115 28.0962 28.8331 28.1217 28.8691C28.144 28.9015 28.1536 28.941 28.1536 28.9878C28.1536 29.0238 28.1472 29.0562 28.1345 29.0922C28.1185 29.1245 28.0962 29.1533 28.0739 29.1749C28.0451 29.1929 28.0164 29.2073 27.9782 29.2109C27.9526 29.2145 27.8984 29.2145 27.8059 29.2181H27.5698V28.4265Z" fill="#1B1717"/>
<path fill-rule="evenodd" clip-rule="evenodd" d="M32.4824 26.4264H32.0709V26.3833L32.0773 26.3437L32.0837 26.3077L32.0932 26.2717L32.1028 26.2357L32.1187 26.207L32.1347 26.1746L32.1538 26.1494L32.1761 26.1242L32.1953 26.099L32.2208 26.081L32.2464 26.0594L32.2719 26.045L32.2974 26.0306L32.3293 26.0163L32.358 26.0055L32.3867 25.9983L32.4186 25.9911L32.4473 25.9875L32.4792 25.9839H32.4824L32.5079 25.9875L32.5398 25.9911L32.5685 25.9947L32.6004 26.0019L32.6291 26.0127L32.6578 26.0235L32.6834 26.0378L32.7089 26.0522L32.7376 26.0738L32.7599 26.0918L32.7823 26.117L32.8014 26.1422L32.8237 26.171L32.8397 26.1998L32.8524 26.2321L32.8652 26.2645L32.8748 26.3041L32.8843 26.3401L32.8876 26.3833L32.8908 26.4264H32.4824ZM28.3991 24.2604H27.509V27.621H28.3991V24.2604ZM40.9936 26.0019L40.9872 25.9695L40.9808 25.9335L40.9713 25.9047L40.9649 25.8723L40.9553 25.8435L40.9457 25.8148L40.933 25.786L40.9234 25.7608L40.9107 25.7356L40.8979 25.7104L40.882 25.6852L40.866 25.6636L40.8501 25.6457L40.8309 25.6241L40.8149 25.6025L40.7958 25.5845L40.7767 25.5665L40.7575 25.5485L40.7352 25.5341L40.7161 25.5161L40.6937 25.5017L40.6714 25.4873L40.649 25.4693L40.6268 25.4585L40.6012 25.4442L40.5757 25.4334L40.5534 25.419L40.5278 25.4082L40.5023 25.3974L40.4768 25.3866L40.4513 25.3758L40.4225 25.365L40.3938 25.3578L40.3683 25.3506L40.3396 25.3398L40.3109 25.3326L40.2822 25.3254L40.2535 25.3182L40.2248 25.311L40.1929 25.3074L40.161 25.3002L40.1323 25.2966L40.1004 25.2894L40.0717 25.2858L40.0398 25.2786L40.0079 25.275L39.9727 25.2714H39.9408L39.909 25.2678H39.8771L39.8484 25.2643H39.8165H39.7814H39.7462H39.7112H39.6761H39.641H39.6059L39.574 25.2678L39.5389 25.2714L39.5038 25.275H39.4687L39.4368 25.2786L39.4049 25.2858L39.3762 25.2894L39.3443 25.2966L39.3156 25.3002L39.2837 25.3074L39.255 25.311L39.2231 25.3182L39.1944 25.3254L39.1657 25.3326L39.1402 25.3434L39.1115 25.3506L39.0859 25.3578L39.0572 25.3686L39.0317 25.3794L39.003 25.3902L38.9775 25.401L38.9519 25.4118L38.9296 25.4226L38.9041 25.437L38.8785 25.4477L38.8562 25.4621L38.8307 25.4765L38.8116 25.4909L38.7892 25.5053L38.7669 25.5197L38.7446 25.5341L38.7223 25.5521L38.7031 25.5701L38.6839 25.5845L38.6616 25.6025L38.6457 25.6241L38.6265 25.6421L38.6074 25.66L38.5914 25.678L38.5723 25.6996L38.5532 25.7212L38.5372 25.7392L38.5213 25.7644L38.5053 25.786L38.4926 25.8076L38.4766 25.8328L38.4638 25.8579L38.4479 25.8795L38.4351 25.9083L38.4224 25.9335L38.4128 25.9587L38.4032 25.9911L38.3905 26.0163L38.3841 26.0486L38.3745 26.0774L38.365 26.1098L38.3618 26.1422L38.3554 26.1746L38.3522 26.1998L38.349 26.2178L38.3458 26.2753H39.3315V26.2249L39.3348 26.2106L39.3411 26.189L39.3507 26.1602L39.3635 26.1314L39.3762 26.1098L39.3954 26.0882L39.4113 26.0702L39.4336 26.0522L39.4592 26.0414L39.4815 26.0306L39.5102 26.0199L39.5389 26.0091L39.5676 26.0019L39.5995 25.9983H39.6314L39.6665 25.9947L39.6984 25.9983H39.7335L39.7622 26.0055L39.7909 26.0127L39.8197 26.0199L39.8452 26.0306L39.8707 26.0414L39.893 26.0558L39.9153 26.0738L39.9313 26.0918L39.9472 26.117L39.9568 26.1458L39.9632 26.1782V26.2106V26.2465L39.9537 26.2753L39.9408 26.3005L39.9217 26.3185L39.9026 26.3329L39.8771 26.3473L39.8515 26.3581L39.826 26.3689L39.7973 26.3761L39.7686 26.3833L39.7399 26.3905L39.708 26.3977L39.6793 26.4013L39.5548 26.4228L39.4304 26.4444L39.306 26.4624L39.1848 26.484L39.1529 26.4876L39.1242 26.4948L39.0923 26.502L39.0636 26.5056L39.0349 26.5128L39.003 26.52L38.9743 26.5272L38.9456 26.5344L38.9169 26.5416L38.8913 26.5524L38.8626 26.5596L38.8339 26.5668L38.8084 26.5776L38.7797 26.5884L38.7542 26.5956L38.7286 26.6063L38.6999 26.6171L38.6744 26.6279L38.6489 26.6387L38.6265 26.6531L38.601 26.6639L38.5755 26.6747L38.5532 26.6891L38.5309 26.7035L38.5085 26.7179L38.4861 26.7359L38.4638 26.7503L38.4447 26.7647L38.4256 26.7827L38.4064 26.8042L38.3873 26.8222L38.3713 26.8438L38.3554 26.8654L38.3394 26.887L38.3235 26.9086L38.3107 26.9338L38.298 26.9626L38.2884 26.9877L38.2757 27.0165L38.2693 27.0453L38.2597 27.0777L38.2533 27.1101L38.2469 27.1425L38.2405 27.1784L38.2373 27.2108L38.2341 27.2468V27.2792L38.2373 27.3116L38.2405 27.344L38.2469 27.3727L38.2565 27.4051L38.266 27.4303L38.2788 27.4591L38.2915 27.4843L38.3075 27.5059L38.3235 27.5275L38.3426 27.5455L38.3618 27.5634L38.3809 27.5814L38.4032 27.5958L38.4287 27.6066L38.4574 27.6138L38.4861 27.6174L38.5181 27.621H39.4815L39.4336 27.585L39.4241 27.5742L39.4113 27.5562L39.3986 27.5383L39.3826 27.5131L39.3699 27.4915L39.357 27.4627L39.3475 27.4303L39.3411 27.3979V27.3655L39.3475 27.3332L39.3539 27.3008L39.3635 27.2756L39.3762 27.2504L39.3954 27.2288L39.4113 27.2108L39.4304 27.1892L39.4528 27.1748L39.4751 27.1605L39.4974 27.1461L39.5229 27.1353L39.5485 27.1245L39.6569 27.0849L39.7622 27.0453L39.7878 27.0345L39.8165 27.0273L39.842 27.0165L39.8707 27.0057L39.8962 26.9949L39.9153 26.9877L39.9281 26.9841L39.944 26.9806L39.9727 26.9626V27.621H41V26.1134V26.0774L40.9968 26.0378L40.9936 26.0019ZM30.2972 24.2532H29.2636V25.3218H28.8457V26.045H29.2636V27.0201V27.0525V27.0885V27.1209L29.2668 27.1533L29.27 27.182L29.2732 27.2108L29.2795 27.2396L29.2859 27.2684L29.2923 27.2936L29.2987 27.3188L29.3083 27.344L29.3178 27.3691L29.3306 27.3907L29.3402 27.4123L29.3529 27.4303L29.3657 27.4519L29.3816 27.4663L29.3944 27.4843L29.4103 27.5023L29.4263 27.5203L29.4422 27.5347L29.4614 27.5455L29.4805 27.5598L29.506 27.567L29.5284 27.5742L29.5507 27.585L29.573 27.5922L29.6017 27.5958L29.6273 27.5994L29.656 27.603L29.6815 27.6066H29.7102L29.7421 27.6102H30.2972V26.045H30.8905V25.3218H30.2972V24.2532ZM35.9564 25.3038L35.9309 25.2966L35.9085 25.2894L35.8862 25.2822L35.8607 25.2786L35.8384 25.275L35.8129 25.2714L35.7874 25.2678H35.7618H35.7395H35.7139L35.6917 25.2714L35.6662 25.275L35.6438 25.2786L35.6183 25.2858L35.5991 25.2894L35.5768 25.2966L35.5545 25.3038L35.5353 25.311L35.5162 25.3182L35.4939 25.3254L35.4747 25.3362L35.4556 25.347L35.4364 25.3578L35.4173 25.3686L35.3981 25.383L35.379 25.3938L35.3631 25.4082L35.3439 25.4226L35.328 25.437L35.3088 25.4514L35.2961 25.4693L35.2801 25.4873L35.2641 25.5017L35.2482 25.5197L35.2354 25.5377L35.2195 25.5557L35.2067 25.5773L35.194 25.5953V25.3218H34.2434V27.621H35.2897V26.4804V26.448L35.2928 26.4156L35.2961 26.3869L35.3025 26.3617L35.3088 26.3329L35.3184 26.3077L35.328 26.2825L35.3376 26.2609L35.3471 26.2393L35.3599 26.2178L35.3758 26.1998L35.3886 26.1818L35.4045 26.1674L35.4205 26.1494L35.4364 26.135L35.4556 26.1242L35.4747 26.1098L35.4939 26.099L35.5162 26.0882L35.5385 26.0774L35.5609 26.0702L35.5864 26.063L35.6087 26.0558L35.6374 26.0522L35.6629 26.0486L35.6917 26.045H36.0011V25.3218L35.9788 25.311L35.9564 25.3038ZM38.0427 25.3038L38.0205 25.2966L37.9981 25.2894L37.9726 25.2822L37.9502 25.2786L37.9247 25.275L37.9024 25.2714L37.8769 25.2678H37.8514H37.829H37.8035L37.778 25.2714L37.7556 25.275L37.7301 25.2786L37.7078 25.2858L37.6855 25.2894L37.6631 25.2966L37.644 25.3038L37.6216 25.311L37.6025 25.3182L37.5834 25.3254L37.561 25.3362L37.5419 25.347L37.5228 25.3578L37.5036 25.3686L37.4877 25.383L37.4685 25.3938L37.4494 25.4082L37.4303 25.4226L37.4143 25.437L37.3983 25.4514L37.3824 25.4693L37.3664 25.4873L37.3505 25.5017L37.3345 25.5197L37.3218 25.5377L37.309 25.5557L37.2931 25.5773L37.2803 25.5953L37.2835 25.3218H36.3328V27.621H37.3761V26.4804V26.448L37.3792 26.4156L37.3856 26.3869L37.3919 26.3617L37.3983 26.3329L37.4048 26.3077L37.4143 26.2825L37.4238 26.2609L37.4366 26.2393L37.4494 26.2178L37.4622 26.1998L37.4749 26.1818L37.4909 26.1674L37.5068 26.1494L37.526 26.135L37.5451 26.1242L37.561 26.1098L37.5834 26.099L37.6025 26.0882L37.6249 26.0774L37.6471 26.0702L37.6727 26.063L37.6982 26.0558L37.7237 26.0522L37.7524 26.0486L37.778 26.045H38.0906V25.3218L38.0651 25.311L38.0427 25.3038ZM33.9147 26.6459V26.6135L33.9116 26.5848V26.556L33.9052 26.5236L33.902 26.4948L33.8988 26.4624L33.8924 26.43L33.886 26.4013L33.8829 26.3653L33.8765 26.3329L33.8701 26.3041L33.8637 26.2717L33.8541 26.2393L33.8446 26.207L33.835 26.1782L33.8254 26.1458L33.8159 26.1134L33.8063 26.0846L33.7936 26.0522L33.784 26.0271L33.7712 25.9983L33.7585 25.9731L33.7457 25.9443L33.733 25.9191L33.717 25.8939L33.701 25.8687L33.6883 25.8435L33.6723 25.822L33.6532 25.7968L33.6372 25.7752L33.6213 25.75L33.6021 25.7284L33.583 25.7068L33.5639 25.6852L33.5447 25.6636L33.5255 25.6457L33.5064 25.6241L33.4841 25.6061L33.4618 25.5881L33.4426 25.5665L33.4203 25.5485L33.398 25.5341L33.3725 25.5161L33.3533 25.5017L33.3278 25.4873L33.3054 25.4693L33.2799 25.455L33.2576 25.4406L33.2321 25.4298L33.2066 25.4154L33.1842 25.4046L33.1587 25.3938L33.1332 25.383L33.1076 25.3722L33.0821 25.3614L33.0566 25.3542L33.0279 25.347L33.0024 25.3398L32.9769 25.3326L32.9514 25.3254L32.9227 25.3182L32.8971 25.3146L32.8684 25.3074L32.8397 25.3038L32.811 25.2966L32.7823 25.2894L32.7536 25.2858L32.7249 25.2822L32.6962 25.2786L32.6675 25.275L32.6388 25.2714L32.61 25.2678H32.5781L32.5526 25.2643H32.5207H32.492H32.4824H32.4632H32.4345H32.4058L32.3771 25.2678H32.3484L32.3197 25.2714L32.291 25.275L32.2591 25.2786L32.2304 25.2822L32.2017 25.2858L32.1761 25.2894L32.1474 25.2966L32.1155 25.3038L32.09 25.311L32.0613 25.3182L32.0326 25.3254L32.0039 25.3326L31.9752 25.3434L31.9465 25.3506L31.9178 25.3614L31.8922 25.3722L31.8635 25.383L31.838 25.3938L31.8093 25.4046L31.7838 25.419L31.755 25.4334L31.7295 25.4477L31.7008 25.4585L31.6753 25.4765L31.6498 25.4909L31.6243 25.5053L31.5988 25.5197L31.5733 25.5377L31.5477 25.5557L31.5222 25.5701L31.4999 25.5881L31.4743 25.6061L31.452 25.6277L31.4297 25.6457L31.4105 25.6672L31.3914 25.6852L31.3722 25.7068L31.3531 25.7284L31.3371 25.75L31.318 25.7752L31.3021 25.7968L31.2829 25.822L31.2702 25.8435L31.251 25.8687L31.2383 25.8939L31.2223 25.9191L31.2096 25.9443L31.1968 25.9731L31.1841 25.9983L31.1712 26.0271L31.1585 26.0522L31.1489 26.081L31.1362 26.1062L31.1266 26.135L31.117 26.1638L31.1075 26.189L31.1011 26.2178L31.0915 26.2465L31.0851 26.2753L31.0788 26.3041L31.0724 26.3329L31.066 26.3617L31.0628 26.3941L31.0596 26.4228L31.0532 26.4552L31.0501 26.484L31.0469 26.5164V26.5452L31.0437 26.5776L31.0405 26.6063V26.6387V26.6675V26.6999V26.7323L31.0437 26.7611L31.0469 26.7934V26.8222L31.0532 26.8546L31.0564 26.8834L31.0596 26.9158L31.066 26.9482L31.0692 26.977L31.0788 27.0057L31.0851 27.0345L31.0915 27.0669L31.1011 27.0957L31.1075 27.1245L31.117 27.1533L31.1266 27.182L31.1362 27.2108L31.1489 27.2396L31.1585 27.2684L31.1712 27.2972L31.1841 27.3224L31.1968 27.3512L31.2096 27.3763L31.2223 27.4051L31.2383 27.4303L31.251 27.4591L31.2702 27.4807L31.2829 27.5059L31.3021 27.5311L31.318 27.5562L31.334 27.5814L31.3531 27.6066H32.0964V27.0165H32.4824H33.886L33.8924 26.9841L33.8988 26.9554L33.902 26.9266L33.9052 26.8942L33.9084 26.8618L33.9116 26.833L33.9147 26.8006V26.7719L33.9179 26.7395V26.7071V26.6783L33.9147 26.6459Z" fill="#1B1717"/>
</svg>
