<svg width="31" height="30" viewBox="0 0 31 30" fill="none" xmlns="http://www.w3.org/2000/svg">
<path d="M29.7155 27.1413L24.0611 21.4931C25.8855 19.1646 26.8754 16.2892 26.8717 13.329C26.8717 10.6928 26.0914 8.11578 24.6295 5.92383C23.1676 3.73188 21.0897 2.02346 18.6586 1.01462C16.2275 0.00577522 13.5525 -0.258184 10.9717 0.25612C8.39084 0.770423 6.02021 2.03989 4.15955 3.90399C2.29889 5.76809 1.03176 8.1431 0.518404 10.7287C0.00504825 13.3143 0.268521 15.9943 1.2755 18.4298C2.28249 20.8654 3.98775 22.9471 6.17566 24.4117C8.36357 25.8763 10.9359 26.6581 13.5672 26.6581C16.5219 26.6618 19.392 25.67 21.7162 23.8423L27.354 29.5072C27.5086 29.6633 27.6925 29.7873 27.8952 29.8719C28.0978 29.9565 28.3152 30 28.5347 30C28.7543 30 28.9717 29.9565 29.1743 29.8719C29.377 29.7873 29.5609 29.6633 29.7155 29.5072C29.8714 29.3523 29.9951 29.168 30.0795 28.965C30.164 28.7619 30.2074 28.5442 30.2074 28.3242C30.2074 28.1043 30.164 27.8865 30.0795 27.6835C29.9951 27.4804 29.8714 27.2961 29.7155 27.1413ZM3.58888 13.329C3.58888 11.3519 4.1741 9.41909 5.27053 7.77513C6.36697 6.13117 7.92537 4.84986 9.74868 4.09322C11.572 3.33659 13.5783 3.13862 15.5139 3.52435C17.4495 3.91008 19.2275 4.86218 20.623 6.26025C22.0185 7.65833 22.9688 9.43958 23.3538 11.3788C23.7389 13.318 23.5413 15.328 22.786 17.1546C22.0308 18.9813 20.7518 20.5426 19.1109 21.6411C17.47 22.7395 15.5408 23.3258 13.5672 23.3258C10.9208 23.3258 8.38277 22.2726 6.51147 20.3978C4.64016 18.5231 3.58888 15.9804 3.58888 13.329Z" fill="white"/>
</svg>
