<svg width="60" height="60" viewBox="0 0 60 60" fill="none" xmlns="http://www.w3.org/2000/svg">
<g clip-path="url(#clip0)">
<path d="M22.2373 13.9573V16.7369C20.3743 14.2879 16.7059 12.6553 12.3901 12.6553C6.13112 12.6553 1.22998 16.0878 1.22998 20.4676V36.0923C1.22998 40.4721 6.13112 43.9047 12.3901 43.9047C12.5792 43.9047 12.7645 43.892 12.9504 43.885C12.9837 43.885 13.0126 43.9047 13.0466 43.9047H47.1834C47.9085 43.9047 48.4964 43.3217 48.4964 42.6026V38.6964H52.4352C53.1603 38.6964 53.7482 38.1134 53.7482 37.3944V33.4882H57.687C58.4121 33.4882 59 32.9052 59 32.1861V13.9573C59 13.2383 58.4121 12.6553 57.687 12.6553H23.5502C22.8251 12.6553 22.2373 13.2383 22.2373 13.9573ZM12.3901 15.2594C17.0156 15.2594 20.9243 17.6448 20.9243 20.4676C20.9243 23.2904 17.0156 25.6759 12.3901 25.6759C7.76462 25.6759 3.85589 23.2904 3.85589 20.4676C3.85589 17.6448 7.76462 15.2594 12.3901 15.2594ZM3.85589 25.5455C6.29973 27.402 9.31286 28.3677 12.3901 28.28C15.4673 28.3677 18.4805 27.402 20.9243 25.5455V25.6759C20.9237 25.8424 20.9102 26.009 20.8839 26.173C20.5044 28.4726 17.5304 30.4143 13.7332 30.8072C13.4889 30.8307 13.2421 30.8504 12.9927 30.8593L12.8972 30.8657C12.7286 30.8815 12.5593 30.8879 12.3901 30.8841C7.76462 30.8841 3.85589 28.4987 3.85589 25.6759V25.5455ZM3.85589 30.7538C6.29973 32.6102 9.31286 33.5759 12.3901 33.4882C12.6273 33.4933 12.8645 33.4844 13.1004 33.4609C13.4851 33.4462 13.8633 33.4164 14.2358 33.375C14.3672 33.3604 14.4897 33.3382 14.6166 33.3216C14.8557 33.2892 15.0961 33.2581 15.3282 33.2148C15.477 33.1888 15.6186 33.1538 15.7629 33.1226C15.9693 33.0781 16.1764 33.0362 16.3764 32.984C16.5245 32.9453 16.6675 32.9008 16.8123 32.8543C17.0015 32.7997 17.1899 32.745 17.3739 32.682C17.5169 32.6325 17.6547 32.5791 17.7958 32.5263C17.9702 32.4595 18.1445 32.3959 18.3144 32.3216C18.4452 32.2618 18.5766 32.1989 18.7157 32.1353C18.8773 32.0596 19.0376 31.9814 19.1927 31.9007C19.3235 31.832 19.4459 31.7602 19.571 31.6877C19.7191 31.6025 19.8633 31.5154 20.0037 31.427C20.1236 31.3488 20.2409 31.2694 20.3544 31.1886C20.4858 31.0939 20.6172 30.9973 20.7486 30.8987C20.8076 30.8529 20.8717 30.811 20.9282 30.7684V30.8841C20.9282 32.5091 19.6037 34.0807 17.3964 35.0872C15.9757 35.6988 14.4493 36.0345 12.901 36.0752C12.7312 36.0917 12.5606 36.0974 12.3901 36.0923C7.76462 36.0923 3.85589 33.7069 3.85589 30.8841V30.7538ZM3.85589 36.0923V35.962C6.29973 37.8184 9.31286 38.7842 12.3901 38.6964C12.6254 38.7015 12.8607 38.6926 13.0953 38.6691C14.9513 38.6093 16.7784 38.1986 18.4785 37.458C19.3594 37.0587 20.1819 36.5431 20.9243 35.9257V36.0923C20.9243 38.9151 17.0156 41.3006 12.3901 41.3006C7.76462 41.3006 3.85589 38.9151 3.85589 36.0923ZM45.8705 41.3006H20.7589C22.4527 40.0869 23.4835 38.1637 23.5502 36.0923V25.6759H45.8705V41.3006ZM51.1223 36.0923H48.4964V24.3738C48.4964 23.6547 47.9085 23.0717 47.1834 23.0717H23.5502V20.4676H51.1223V36.0923ZM56.3741 15.2594V30.8841H53.7482V19.1656C53.7482 18.4465 53.1603 17.8635 52.4352 17.8635H24.8632V15.2594H56.3741Z" fill="#034899"/>
<path d="M30.1146 38.6965C33.0149 38.6965 35.3664 36.3645 35.3664 33.4883C35.3664 30.612 33.0149 28.28 30.1146 28.28C27.2143 28.28 24.8628 30.612 24.8628 33.4883C24.8628 36.3645 27.2143 38.6965 30.1146 38.6965ZM30.1146 30.8841C31.5648 30.8841 32.7405 32.0501 32.7405 33.4883C32.7405 34.9264 31.5648 36.0924 30.1146 36.0924C28.6645 36.0924 27.4887 34.9264 27.4887 33.4883C27.4887 32.0501 28.6645 30.8841 30.1146 30.8841Z" fill="#E6330F"/>
<path d="M43.2443 32.1862V29.5821C42.5192 29.5821 41.9313 28.9991 41.9313 28.28H39.3054C39.3054 30.4372 41.0691 32.1862 43.2443 32.1862Z" fill="#E6330F"/>
<path d="M43.2443 37.3942V34.79C41.0691 34.79 39.3054 36.539 39.3054 38.6962H41.9313C41.9313 37.9772 42.5192 37.3942 43.2443 37.3942Z" fill="#E6330F"/>
<path d="M15.6725 2.23888H47.1835V6.31671L45.2865 5.0617L43.8286 7.22841L47.7675 9.83253C48.1707 10.0996 48.6887 10.1243 49.1164 9.89738C49.1542 9.87703 49.183 9.84651 49.2183 9.82363L49.2253 9.83253L53.1642 7.22841L51.7064 5.0617L49.8094 6.31671V0.936824C49.8094 0.217767 49.2215 -0.365234 48.4964 -0.365234H14.3596C13.6345 -0.365234 13.0466 0.217767 13.0466 0.936824V10.0512H15.6725V2.23888Z" fill="#034899"/>
<path d="M48.4963 54.3211H16.9854V50.2433L18.8824 51.4983L20.3402 49.3316L16.4014 46.7275C15.9981 46.4605 15.4801 46.4357 15.0525 46.6626C15.0147 46.683 14.9858 46.7135 14.9506 46.7364V46.7275L11.0117 49.3316L12.4689 51.4983L14.3595 50.2433V55.6232C14.3595 56.3423 14.9474 56.9253 15.6725 56.9253H49.8093C50.5344 56.9253 51.1222 56.3423 51.1222 55.6232V46.5088H48.4963V54.3211Z" fill="#034899"/>
</g>
<defs>
<clipPath id="clip0">
<rect width="60" height="60" fill="white"/>
</clipPath>
</defs>
</svg>
