<svg width="23" height="10" viewBox="0 0 23 10" fill="none" xmlns="http://www.w3.org/2000/svg">
<path fill-rule="evenodd" clip-rule="evenodd" d="M0.259859 0.209794C0.342022 0.143292 0.439629 0.0905301 0.547089 0.0545301C0.654548 0.0185301 0.769749 0 0.886093 0C1.00244 0 1.11764 0.0185301 1.2251 0.0545301C1.33256 0.0905301 1.43016 0.143292 1.51233 0.209794L11.5002 8.27488L21.4881 0.209794C21.5704 0.1434 21.668 0.0907329 21.7755 0.0548005C21.8829 0.0188681 21.9981 0.000373881 22.1144 0.000373881C22.2307 0.000373881 22.3458 0.0188681 22.4533 0.0548005C22.5607 0.0907329 22.6584 0.1434 22.7406 0.209794C22.8228 0.276189 22.8881 0.35501 22.9326 0.441759C22.9771 0.528507 23 0.621484 23 0.71538C23 0.809276 22.9771 0.902252 22.9326 0.989001C22.8881 1.07575 22.8228 1.15457 22.7406 1.22097L12.1265 9.79021C12.0443 9.85671 11.9467 9.90947 11.8392 9.94547C11.7318 9.98147 11.6166 10 11.5002 10C11.3839 10 11.2687 9.98147 11.1612 9.94547C11.0538 9.90947 10.9562 9.85671 10.874 9.79021L0.259859 1.22097C0.177487 1.15463 0.112134 1.07583 0.0675436 0.989072C0.0229528 0.902316 0 0.809309 0 0.71538C0 0.62145 0.0229528 0.528444 0.0675436 0.441687C0.112134 0.35493 0.177487 0.276128 0.259859 0.209794Z" fill="#504B4B"/>
</svg>
